<svg class="animated" id="freepik_stories-cute-alien" xmlns="http://www.w3.org/2000/svg" viewBox="0 0 500 500" version="1.1" xmlns:xlink="http://www.w3.org/1999/xlink" xmlns:svgjs="http://svgjs.com/svgjs"><style>svg#freepik_stories-cute-alien:not(.animated) .animable {opacity: 0;}svg#freepik_stories-cute-alien.animated #freepik--alien-3--inject-26 {animation: 1.5s Infinite  linear floating;animation-delay: 0s;}svg#freepik_stories-cute-alien.animated #freepik--alien-2--inject-26 {animation: 1.5s Infinite  linear floating;animation-delay: -1s;}svg#freepik_stories-cute-alien.animated #freepik--alien-1--inject-26 {animation: 1.5s Infinite  linear floating;animation-delay: 0s;}            @keyframes floating {                0% {                    opacity: 1;                    transform: translateY(0px);                }                50% {                    transform: translateY(-10px);                }                100% {                    opacity: 1;                    transform: translateY(0px);                }            }        </style><g id="freepik--background-simple--inject-26" class="animable" style="transform-origin: 249.253px 253.467px;"><path d="M452.28,388.17q-2.49,4.14-5.18,8.12c-24,35.26-64,59.4-102.78,70.34a221.36,221.36,0,0,1-51.9,7.94c-114.35,4.16-156.35-90.12-193.19-114.43S5.85,294.31,13,207.09C18.33,140.78,56.06,77.37,125,48.51a196,196,0,0,1,23.91-8.25,227.94,227.94,0,0,1,50.5-7.76c52.09-2.32,94.39,10.23,135.76,41.85C344.75,81.7,354.32,90,366.8,90.9c9.07.66,17.67-2.59,8.19-11.36C363.84,69.23,376.7,49,405,63.05c47.25,23.51,66.69,74.25,75.85,125.85C492.08,252.23,486.63,331,452.28,388.17Z" style="fill: rgb(0, 255, 136); transform-origin: 249.253px 253.467px;" id="el2icohfi02g3" class="animable"></path><g id="eldytcrsc9o7b"><path d="M452.28,388.17q-2.49,4.14-5.18,8.12c-24,35.26-64,59.4-102.78,70.34a221.36,221.36,0,0,1-51.9,7.94c-114.35,4.16-156.35-90.12-193.19-114.43S5.85,294.31,13,207.09C18.33,140.78,56.06,77.37,125,48.51a196,196,0,0,1,23.91-8.25,227.94,227.94,0,0,1,50.5-7.76c52.09-2.32,94.39,10.23,135.76,41.85C344.75,81.7,354.32,90,366.8,90.9c9.07.66,17.67-2.59,8.19-11.36C363.84,69.23,376.7,49,405,63.05c47.25,23.51,66.69,74.25,75.85,125.85C492.08,252.23,486.63,331,452.28,388.17Z" style="fill: rgb(255, 255, 255); opacity: 0.7; transform-origin: 249.253px 253.467px;" class="animable"></path></g></g><g id="freepik--Stars--inject-26" class="animable" style="transform-origin: 249.895px 227.725px;"><g id="el6q16uxvx8u7"><g style="opacity: 0.14; transform-origin: 249.895px 227.725px;" class="animable"><polygon points="85.12 64.82 90.27 75.27 101.8 76.94 93.46 85.08 95.43 96.56 85.12 91.14 74.81 96.56 76.78 85.08 68.43 76.94 79.96 75.27 85.12 64.82" id="elm1z1jawtvzc" class="animable" style="transform-origin: 85.115px 80.69px;"></polygon><polygon points="341.19 71.68 340.9 77.52 345.55 81.06 339.91 82.59 337.97 88.11 334.77 83.22 328.93 83.08 332.59 78.53 330.91 72.93 336.38 75 341.19 71.68" id="elpcusjvsgdv" class="animable" style="transform-origin: 337.24px 79.895px;"></polygon><polygon points="77.84 214.38 70.49 213.57 65.66 219.18 64.14 211.94 57.31 209.08 63.74 205.4 64.35 198.02 69.83 202.99 77.04 201.29 74 208.05 77.84 214.38" id="el0yp85qfgedmr" class="animable" style="transform-origin: 67.575px 208.6px;"></polygon><polygon points="287.75 373.91 280.39 373.11 275.56 378.72 274.05 371.48 267.22 368.61 273.64 364.94 274.25 357.56 279.74 362.53 286.94 360.83 283.91 367.58 287.75 373.91" id="eliedvnyjiizb" class="animable" style="transform-origin: 277.485px 368.14px;"></polygon><polygon points="472.8 385.88 460.88 383.54 452.19 392.03 450.74 379.96 439.98 374.32 451 369.21 453.04 357.23 461.31 366.14 473.33 364.38 467.42 374.99 472.8 385.88" id="elkuv7z5ww77" class="animable" style="transform-origin: 456.655px 374.63px;"></polygon><polygon points="47.5 394.43 39.89 393.12 34.5 398.65 33.39 391.01 26.46 387.59 33.39 384.17 34.51 376.53 39.89 382.06 47.51 380.76 43.91 387.6 47.5 394.43" id="elemsujezbzr9" class="animable" style="transform-origin: 36.985px 387.59px;"></polygon><polygon points="445.92 79.8 435.77 78.48 428.93 86.09 427.05 76.03 417.69 71.87 426.68 66.97 427.75 56.8 435.18 63.83 445.19 61.7 440.8 70.94 445.92 79.8" id="elnzjxy64fbl" class="animable" style="transform-origin: 431.805px 71.445px;"></polygon><polygon points="433.95 187.53 427.1 186.48 422.35 191.52 421.23 184.68 414.96 181.73 421.13 178.55 422 171.68 426.93 176.55 433.73 175.26 430.62 181.45 433.95 187.53" id="elobafx7rufe" class="animable" style="transform-origin: 424.455px 181.6px;"></polygon></g></g></g><g id="freepik--alien-3--inject-26" class="animable" style="transform-origin: 370.871px 357.799px;"><ellipse cx="372.82" cy="464.54" rx="87.92" ry="11.97" style="fill: rgb(38, 50, 56); transform-origin: 372.82px 464.54px;" id="elhxeu40w03c" class="animable"></ellipse><path d="M372.82,477c-43.47,0-88.43-4.66-88.43-12.47s45-12.47,88.43-12.47,88.42,4.67,88.42,12.47S416.28,477,372.82,477Zm0-23.94c-52.3,0-87.43,5.93-87.43,11.47S320.52,476,372.82,476s87.42-5.93,87.42-11.47S425.11,453.07,372.82,453.07Z" style="fill: rgb(38, 50, 56); transform-origin: 372.815px 464.53px;" id="ell09vx8xnlk" class="animable"></path><path d="M348.61,290c-1-15.79-8.77-24.09-8.84-24.17l3.61-3.47c.37.38,9.07,9.58,10.23,27.31Z" style="fill: rgb(0, 255, 136); transform-origin: 346.69px 276.18px;" id="el15blkttzfdc" class="animable"></path><path d="M348.14,290.54l0-.5c-1-15.54-8.63-23.77-8.71-23.85l-.34-.36,4.33-4.17.35.36c.38.39,9.19,9.7,10.37,27.62l0,.5Zm-7.68-24.67c1.49,1.78,7.58,9.81,8.61,23.61l4-.27c-1.15-15.51-8.08-24.26-9.72-26.13Z" style="fill: rgb(38, 50, 56); transform-origin: 346.615px 276.1px;" id="elh9pb53urr7w" class="animable"></path><g id="el1cgj306srjr"><circle cx="335.31" cy="259.49" r="16.26" style="fill: rgb(0, 255, 136); transform-origin: 335.31px 259.49px; transform: rotate(-69.98deg);" class="animable"></circle></g><path d="M335.34,276.25a17.64,17.64,0,0,1-2.7-.21,16.77,16.77,0,1,1,19.21-13.89h0a16.77,16.77,0,0,1-16.51,14.1Zm0-32.52A15.76,15.76,0,1,0,350.87,262h0a15.77,15.77,0,0,0-13.06-18.07A16.43,16.43,0,0,0,335.3,243.73Z" style="fill: rgb(38, 50, 56); transform-origin: 335.294px 259.481px;" id="elubl2ffjt0nc" class="animable"></path><g id="elwoxnlnrvyw8"><circle cx="335.59" cy="257.71" r="11.6" style="fill: rgb(38, 50, 56); transform-origin: 335.59px 257.71px; transform: rotate(-36.22deg);" class="animable"></circle></g><path d="M335.62,269.82a11.66,11.66,0,0,1-1.95-.16,12.1,12.1,0,1,1,13.87-10,12.12,12.12,0,0,1-11.92,10.18Zm0-23.21a11.1,11.1,0,0,0-1.76,22.06,11.1,11.1,0,0,0,12.73-9.19,11.12,11.12,0,0,0-9.2-12.73A10.73,10.73,0,0,0,335.59,246.61Z" style="fill: rgb(38, 50, 56); transform-origin: 335.597px 257.727px;" id="el874ytdicg" class="animable"></path><g id="elc1rir2axkzf"><circle cx="335.31" cy="259.49" r="11.6" style="fill: rgb(255, 255, 255); transform-origin: 335.31px 259.49px; transform: rotate(-25.45deg);" class="animable"></circle></g><path d="M335.33,271.6a12.93,12.93,0,0,1-1.95-.16,12.11,12.11,0,1,1,13.87-10h0a12.1,12.1,0,0,1-11.92,10.19Zm-.05-23.22a11.11,11.11,0,1,0,11,12.88h0a11.1,11.1,0,0,0-9.2-12.73A10.81,10.81,0,0,0,335.28,248.38Z" style="fill: rgb(38, 50, 56); transform-origin: 335.299px 259.502px;" id="el5lpd3depdxn" class="animable"></path><path d="M342.45,260.64a7.24,7.24,0,1,1-6-8.29A7.23,7.23,0,0,1,342.45,260.64Z" style="fill: rgb(38, 50, 56); transform-origin: 335.301px 259.498px;" id="el1fifl9fer02" class="animable"></path><path d="M335.32,267.23a8.64,8.64,0,0,1-1.24-.1,7.75,7.75,0,0,1-6.41-8.87,7.73,7.73,0,1,1,7.65,9Zm0-14.48a6.74,6.74,0,0,0-6.64,5.67,6.62,6.62,0,0,0,1.19,5A6.74,6.74,0,0,0,342,260.56h0a6.75,6.75,0,0,0-5.58-7.72A6.56,6.56,0,0,0,335.3,252.75Z" style="fill: rgb(38, 50, 56); transform-origin: 335.299px 259.53px;" id="el4qhblufw7a" class="animable"></path><path d="M334.9,256.63a3.23,3.23,0,1,1-2.68-3.7A3.24,3.24,0,0,1,334.9,256.63Z" style="fill: rgb(255, 255, 255); transform-origin: 331.71px 256.12px;" id="elux1w627jww" class="animable"></path><path d="M333,264.77a2.13,2.13,0,1,1-1.76-2.43A2.11,2.11,0,0,1,333,264.77Z" style="fill: rgb(255, 255, 255); transform-origin: 330.897px 264.442px;" id="elrcta69sodjd" class="animable"></path><path d="M325.63,306.84c-9.87-12.36-20.95-14.76-21.06-14.78l1-4.92c.52.1,12.92,2.69,24,16.57Z" style="fill: rgb(0, 255, 136); transform-origin: 317.07px 296.99px;" id="el2fajls6igup" class="animable"></path><path d="M325.55,307.54l-.31-.39c-9.72-12.17-20.66-14.58-20.77-14.6l-.49-.1,1.18-5.9.49.1c.53.1,13.1,2.73,24.29,16.75l.31.39Zm-20.4-15.85c2.24.6,11.82,3.71,20.56,14.45l3.14-2.51c-9.79-12.05-20.49-15.29-22.91-15.89Z" style="fill: rgb(38, 50, 56); transform-origin: 317.115px 297.045px;" id="elgf8jrc6vq5m" class="animable"></path><g id="eldngpe2f61i4"><circle cx="297.28" cy="289.39" r="16.26" style="fill: rgb(0, 255, 136); transform-origin: 297.28px 289.39px; transform: rotate(-51.12deg);" class="animable"></circle></g><path d="M297.29,306.16a16.91,16.91,0,0,1-5.55-1,16.76,16.76,0,1,1,20.64-23.08h0a16.78,16.78,0,0,1-15.09,24Zm0-32.53a15.76,15.76,0,1,0,14.21,8.93h0a15.78,15.78,0,0,0-14.21-8.93Z" style="fill: rgb(38, 50, 56); transform-origin: 297.263px 289.37px;" id="elqibh34wb96j" class="animable"></path><path d="M307,282.74a11.6,11.6,0,1,1-15.48-5.43A11.61,11.61,0,0,1,307,282.74Z" style="fill: rgb(38, 50, 56); transform-origin: 296.545px 287.767px;" id="el5tdw2171em" class="animable"></path><path d="M296.51,299.88a12.11,12.11,0,1,1,5.24-1.2A12.08,12.08,0,0,1,296.51,299.88Zm0-23.21a11.1,11.1,0,1,0,10,6.29A11,11,0,0,0,296.48,276.67Z" style="fill: rgb(38, 50, 56); transform-origin: 296.494px 287.77px;" id="el5qg0baolbgg" class="animable"></path><path d="M307.74,284.36a11.61,11.61,0,1,1-15.49-5.42A11.61,11.61,0,0,1,307.74,284.36Z" style="fill: rgb(255, 255, 255); transform-origin: 297.282px 289.403px;" id="elig4uab3k2r" class="animable"></path><path d="M297.29,301.5a12.33,12.33,0,0,1-4-.68,12.09,12.09,0,1,1,4,.68Zm0-23.21a10.92,10.92,0,0,0-4.79,1.1,11.1,11.1,0,1,0,14.82,5.19h0A11.12,11.12,0,0,0,297.26,278.29Z" style="fill: rgb(38, 50, 56); transform-origin: 297.287px 289.41px;" id="el1fv8cc559sw" class="animable"></path><path d="M303.8,286.26a7.23,7.23,0,1,1-9.66-3.39A7.23,7.23,0,0,1,303.8,286.26Z" style="fill: rgb(38, 50, 56); transform-origin: 297.279px 289.383px;" id="elz3vfizb081n" class="animable"></path><path d="M297.29,297.13a7.59,7.59,0,0,1-2.57-.44,7.74,7.74,0,1,1,5.91-.33A7.56,7.56,0,0,1,297.29,297.13Zm0-14.47a6.73,6.73,0,1,0,6.08,3.81A6.71,6.71,0,0,0,297.27,282.66Z" style="fill: rgb(38, 50, 56); transform-origin: 297.276px 289.387px;" id="el8qxehzkom3c" class="animable"></path><path d="M295.31,287.28a3.23,3.23,0,1,1-4.31-1.51A3.22,3.22,0,0,1,295.31,287.28Z" style="fill: rgb(255, 255, 255); transform-origin: 292.4px 288.679px;" id="el5iwoxb78mke" class="animable"></path><path d="M298.36,295.08a2.12,2.12,0,1,1-2.83-1A2.12,2.12,0,0,1,298.36,295.08Z" style="fill: rgb(255, 255, 255); transform-origin: 296.446px 295.992px;" id="elh3ma55tp5oe" class="animable"></path><path d="M397.79,290c1-15.79,8.76-24.09,8.84-24.17L403,262.37c-.37.38-9.06,9.58-10.23,27.31Z" style="fill: rgb(0, 255, 136); transform-origin: 399.7px 276.185px;" id="elxf3rjvuhohh" class="animable"></path><path d="M398.25,290.54l-6-.4,0-.5c1.18-17.92,10-27.23,10.38-27.62l.34-.36,4.33,4.17-.34.36c-.07.08-7.69,8.35-8.7,23.85Zm-4.93-1.33,4,.27c1-13.71,7.14-21.82,8.62-23.6l-2.9-2.8C401.4,265,394.47,273.71,393.32,289.21Z" style="fill: rgb(38, 50, 56); transform-origin: 399.775px 276.1px;" id="el4fq3l0g8bdo" class="animable"></path><g id="elp4iy0sn3bv"><circle cx="411.09" cy="259.49" r="16.26" style="fill: rgb(0, 255, 136); transform-origin: 411.09px 259.49px; transform: rotate(-20.3deg);" class="animable"></circle></g><path d="M411.05,276.25a16.77,16.77,0,0,1-16.51-14.1h0A16.76,16.76,0,1,1,413.75,276,17.54,17.54,0,0,1,411.05,276.25ZM395.53,262a15.76,15.76,0,1,0,13.05-18.07A15.65,15.65,0,0,0,395.53,262Z" style="fill: rgb(38, 50, 56); transform-origin: 411.082px 259.472px;" id="el9z07jwzo7oe" class="animable"></path><g id="eljexkqxy1vq"><circle cx="410.8" cy="257.71" r="11.6" style="fill: rgb(38, 50, 56); transform-origin: 410.8px 257.71px; transform: rotate(-64.18deg);" class="animable"></circle></g><path d="M410.78,269.82a12.17,12.17,0,1,1,2-.16A11.75,11.75,0,0,1,410.78,269.82Zm0-23.21a10.56,10.56,0,0,0-1.77.14,11.1,11.1,0,1,0,3.53,21.92,11.1,11.1,0,0,0,9.2-12.72A11.13,11.13,0,0,0,410.81,246.61Z" style="fill: rgb(38, 50, 56); transform-origin: 410.813px 257.65px;" id="el940brpji99c" class="animable"></path><g id="el110igr3pu4nb"><circle cx="411.09" cy="259.49" r="11.6" style="fill: rgb(255, 255, 255); transform-origin: 411.09px 259.49px; transform: rotate(-61.69deg);" class="animable"></circle></g><path d="M411.06,271.6a12.12,12.12,0,0,1-11.92-10.19h0a12.1,12.1,0,1,1,13.87,10A12.82,12.82,0,0,1,411.06,271.6Zm-10.93-10.34a11.1,11.1,0,1,0,9.19-12.73,11,11,0,0,0-9.19,12.73Z" style="fill: rgb(38, 50, 56); transform-origin: 411.083px 259.482px;" id="elwn948kttd9" class="animable"></path><path d="M404,260.64a7.23,7.23,0,1,0,6-8.29A7.22,7.22,0,0,0,404,260.64Z" style="fill: rgb(38, 50, 56); transform-origin: 411.137px 259.49px;" id="elvj1lxt1olgb" class="animable"></path><path d="M411.07,267.23a7.75,7.75,0,0,1-7.62-6.51h0a7.76,7.76,0,0,1,6.41-8.87,7.74,7.74,0,0,1,2.46,15.28A8.78,8.78,0,0,1,411.07,267.23Zm-6.63-6.67a6.73,6.73,0,1,0,5.58-7.72,6.72,6.72,0,0,0-5.58,7.72Z" style="fill: rgb(38, 50, 56); transform-origin: 411.014px 259.503px;" id="el9vx6x7lf39o" class="animable"></path><path d="M411.5,256.63a3.23,3.23,0,1,0,2.67-3.7A3.23,3.23,0,0,0,411.5,256.63Z" style="fill: rgb(255, 255, 255); transform-origin: 414.689px 256.118px;" id="eld36iqgv9iut" class="animable"></path><path d="M413.45,264.77a2.13,2.13,0,1,0,1.76-2.43A2.13,2.13,0,0,0,413.45,264.77Z" style="fill: rgb(255, 255, 255); transform-origin: 415.555px 264.442px;" id="elzd28uh4bn6d" class="animable"></path><path d="M420.76,306.84c9.87-12.36,21-14.76,21.07-14.78l-1-4.92c-.53.1-12.92,2.69-24,16.57Z" style="fill: rgb(0, 255, 136); transform-origin: 429.33px 296.99px;" id="ela4cmyi7ug9t" class="animable"></path><path d="M420.84,307.54l-4.7-3.75.31-.39c11.19-14,23.77-16.64,24.3-16.75l.49-.1,1.17,5.9-.48.1c-.11,0-11.05,2.42-20.78,14.6Zm-3.29-3.91,3.14,2.51c8.75-10.75,18.32-13.85,20.55-14.45l-.78-3.95C438,288.35,427.34,291.59,417.55,303.63Z" style="fill: rgb(38, 50, 56); transform-origin: 429.275px 297.045px;" id="elb2uxev8009" class="animable"></path><g id="el32cdbc9s8s9"><circle cx="449.12" cy="289.39" r="16.26" style="fill: rgb(0, 255, 136); transform-origin: 449.12px 289.39px; transform: rotate(-7.35deg);" class="animable"></circle></g><path d="M449.09,306.15a16.76,16.76,0,0,1-15.08-24,16.76,16.76,0,1,1,15.08,24Zm.05-32.51a15.73,15.73,0,1,0,6.81,1.55A15.77,15.77,0,0,0,449.14,273.64Z" style="fill: rgb(38, 50, 56); transform-origin: 449.126px 289.39px;" id="elb4k5q4drelh" class="animable"></path><path d="M439.44,282.74a11.6,11.6,0,1,0,15.49-5.43A11.6,11.6,0,0,0,439.44,282.74Z" style="fill: rgb(38, 50, 56); transform-origin: 449.897px 287.761px;" id="el7u4sac8hs23" class="animable"></path><path d="M449.89,299.88a12.15,12.15,0,1,1,4-.69A12.06,12.06,0,0,1,449.89,299.88Zm0-23.21a11.1,11.1,0,1,0,3.66,21.58,11.1,11.1,0,0,0-3.66-21.58Z" style="fill: rgb(38, 50, 56); transform-origin: 449.854px 287.73px;" id="ellqtu258l1xj" class="animable"></path><path d="M438.66,284.36a11.6,11.6,0,1,0,15.49-5.42A11.6,11.6,0,0,0,438.66,284.36Z" style="fill: rgb(255, 255, 255); transform-origin: 449.113px 289.389px;" id="eli5fpzbwh9us" class="animable"></path><path d="M449.1,301.5A12.11,12.11,0,1,1,460,294.64,12.07,12.07,0,0,1,449.1,301.5Zm0-23.21a11.11,11.11,0,1,0,4.8,1.1A11,11,0,0,0,449.13,278.29Z" style="fill: rgb(38, 50, 56); transform-origin: 449.087px 289.39px;" id="el62t7vpwikvj" class="animable"></path><path d="M442.6,286.26a7.23,7.23,0,1,0,9.65-3.39A7.22,7.22,0,0,0,442.6,286.26Z" style="fill: rgb(38, 50, 56); transform-origin: 449.119px 289.385px;" id="elkw3aehawb4" class="animable"></path><path d="M449.1,297.13a7.73,7.73,0,1,1,7-4.38A7.69,7.69,0,0,1,449.1,297.13Zm0-14.48a6.8,6.8,0,0,0-6.07,3.82,6.73,6.73,0,1,0,9-3.15A6.81,6.81,0,0,0,449.12,282.65Z" style="fill: rgb(38, 50, 56); transform-origin: 449.134px 289.4px;" id="elcwq19zs6c8n" class="animable"></path><path d="M451.08,287.28a3.23,3.23,0,1,0,4.31-1.51A3.24,3.24,0,0,0,451.08,287.28Z" style="fill: rgb(255, 255, 255); transform-origin: 453.99px 288.683px;" id="el48xcwfh24og" class="animable"></path><path d="M448,295.08a2.12,2.12,0,1,0,2.84-1A2.13,2.13,0,0,0,448,295.08Z" style="fill: rgb(255, 255, 255); transform-origin: 449.916px 295.99px;" id="el6y0ljpk9dm4" class="animable"></path><path d="M363.39,396.06l6.31,61.51a5.6,5.6,0,0,1-5.41,6.18c-11.24.33-34.63.86-38.82-.19-5.55-1.38-6-4.62-9.25-3.7s-10.17,3.7-10.17,3.7c3.25-8.56,11.1-15.25,18-16.18,3.75-.5,9.25.49,13.52,1.5a5.71,5.71,0,0,0,7-5L349.05,397" style="fill: rgb(0, 255, 136); transform-origin: 337.89px 430.12px;" id="el7hg52wy0qjp" class="animable"></path><path d="M339.61,464.68c-6.76,0-12.37-.16-14.26-.63a14.53,14.53,0,0,1-5.45-2.65c-1.29-.92-2.06-1.48-3.54-1.06-3.17.91-10.05,3.66-10.12,3.69l-1.06.42.4-1.06c3.21-8.44,11.13-15.53,18.44-16.51,3.88-.51,9.59.54,13.69,1.51a5.22,5.22,0,0,0,6.4-4.58l4.44-46.87,1,.09-4.45,46.88a6.2,6.2,0,0,1-7.62,5.45c-4-.95-9.6-2-13.33-1.48-6.66.88-13.88,7.15-17.19,14.79,2.09-.82,6.64-2.58,9.13-3.29,1.94-.55,3,.22,4.39,1.21a13.65,13.65,0,0,0,5.11,2.49c4.18,1,28.44.47,38.68.17a5.11,5.11,0,0,0,4.94-5.63l-6.32-61.51,1-.1,6.32,61.51a6.12,6.12,0,0,1-1.48,4.65,6,6,0,0,1-4.42,2.08C357.36,464.45,347.67,464.68,339.61,464.68Z" style="fill: rgb(38, 50, 56); transform-origin: 337.711px 430.345px;" id="elj1bu9m51mj" class="animable"></path><polyline points="345.21 396.56 340.6 418.08 343.58 415.09 339.79 429.43 343.04 426.44 338.98 442.58 341.96 440.19 338.98 449.15 352.52 440.79 357.66 448.86 357.93 442.88 361.72 447.06 363.08 441.38 370.93 447.96 370.39 439.89 373.37 441.98 370.12 427.64 372.82 428.54 368.76 414.49 371.47 415.09 368.22 402.54 366.33 396.56" style="fill: rgb(38, 50, 56); transform-origin: 356.175px 422.855px;" id="elf3f63qynppk" class="animable"></polyline><polygon points="358.09 450.46 352.36 441.47 338.07 450.3 340.95 441.64 338.13 443.9 342.15 427.95 338.87 430.96 342.62 416.76 339.76 419.63 344.72 396.46 345.69 396.67 341.45 416.52 344.54 413.42 340.71 427.91 343.93 424.94 339.83 441.26 342.97 438.74 339.89 448 352.67 440.1 357.23 447.25 357.49 441.64 361.46 446.02 362.78 440.48 370.35 446.82 369.82 438.88 372.59 440.83 369.43 426.89 372.08 427.76 368.05 413.82 370.78 414.43 367.74 402.67 365.85 396.72 366.8 396.41 368.7 402.39 372.16 415.75 369.48 415.16 373.57 429.31 370.8 428.39 374.14 443.14 370.96 440.9 371.51 449.1 363.38 442.29 361.99 448.1 358.38 444.11 358.09 450.46" style="fill: rgb(38, 50, 56); transform-origin: 356.105px 423.435px;" id="el0yrdzsmjiya" class="animable"></polygon><path d="M333,450.64s-7.09-1.91-12.82,1.64-9.83,13.64-9.83,13.64l6.55-3.82s5.73,3.55,8.19,2.73a13.5,13.5,0,0,0,3.55-1.64" style="fill: rgb(0, 255, 136); transform-origin: 321.675px 458.023px;" id="eld7svxjkbqyk" class="animable"></path><path d="M309.38,467.09l.55-1.36c.17-.42,4.22-10.29,10-13.88s12.92-1.77,13.21-1.69l-.26,1c-.06,0-7-1.81-12.43,1.58-4.27,2.64-7.66,9.14-9,12l5.47-3.19.26.15c1.54,1,5.94,3.3,7.76,2.68a13.16,13.16,0,0,0,3.41-1.56l.6.8a13.78,13.78,0,0,1-3.69,1.71c-2.38.8-7.09-1.87-8.35-2.62Z" style="fill: rgb(38, 50, 56); transform-origin: 321.26px 458.359px;" id="elizc1f7ryn1n" class="animable"></path><path d="M339.87,450.64s-7.1-1.91-12.83,1.64-9.82,13.64-9.82,13.64l6.55-3.82s5.73,3.55,8.18,2.73a13.5,13.5,0,0,0,3.55-1.64" style="fill: rgb(0, 255, 136); transform-origin: 328.545px 458.023px;" id="elwzdnnxnixa" class="animable"></path><path d="M316.2,467.09l.55-1.36c.17-.42,4.22-10.29,10-13.88s12.92-1.77,13.22-1.69l-.26,1c-.07,0-7-1.81-12.44,1.58-4.26,2.64-7.66,9.14-9,12l5.47-3.19.26.15c1.54,1,5.94,3.3,7.76,2.68a13.16,13.16,0,0,0,3.41-1.56l.6.8a13.78,13.78,0,0,1-3.69,1.71c-2.38.8-7.09-1.87-8.35-2.62Z" style="fill: rgb(38, 50, 56); transform-origin: 328.085px 458.359px;" id="elkuxmge79bub" class="animable"></path><path d="M386.43,396.06l-6.32,61.51a5.61,5.61,0,0,0,5.42,6.18c11.24.33,34.63.86,38.81-.19,5.55-1.38,6-4.62,9.25-3.7s10.17,3.7,10.17,3.7c-3.25-8.56-11.1-15.25-18-16.18-3.75-.5-9.25.49-13.52,1.5a5.7,5.7,0,0,1-7-5L400.76,397" style="fill: rgb(0, 255, 136); transform-origin: 411.92px 430.12px;" id="elcgbkcqlam5w" class="animable"></path><path d="M410.2,464.68c-8.06,0-17.74-.23-24.69-.43a6.1,6.1,0,0,1-5.9-6.73L385.93,396l1,.1-6.31,61.51a5.11,5.11,0,0,0,4.93,5.63c10.24.3,34.5.87,38.68-.17a13.57,13.57,0,0,0,5.11-2.49c1.37-1,2.46-1.76,4.4-1.21,2.48.71,7,2.47,9.13,3.29-3.32-7.64-10.54-13.91-17.2-14.79-3.72-.5-9.31.53-13.33,1.48a6.2,6.2,0,0,1-7.62-5.45L400.26,397l1-.09,4.44,46.87a5.22,5.22,0,0,0,6.4,4.58c4.11-1,9.81-2,13.69-1.5,7.31,1,15.24,8.06,18.44,16.5l.4,1.06-1.06-.42c-.07,0-6.95-2.78-10.12-3.69-1.48-.42-2.25.14-3.53,1.06a14.67,14.67,0,0,1-5.46,2.65C422.57,464.52,417,464.68,410.2,464.68Z" style="fill: rgb(38, 50, 56); transform-origin: 412.104px 430.34px;" id="el7b0x2kbd7v3" class="animable"></path><polyline points="404.61 396.56 409.21 418.08 406.23 415.09 410.02 429.43 406.77 426.44 410.83 442.58 407.86 440.19 410.83 449.15 397.3 440.79 392.15 448.86 391.88 442.88 388.09 447.06 386.74 441.38 378.88 447.96 379.43 439.89 376.45 441.98 379.69 427.64 376.99 428.54 381.05 414.49 378.34 415.09 381.59 402.54 383.49 396.56" style="fill: rgb(38, 50, 56); transform-origin: 393.64px 422.855px;" id="el03gnqun98044" class="animable"></polyline><polygon points="391.72 450.46 391.44 444.11 387.82 448.1 386.44 442.29 378.31 449.1 378.86 440.9 375.67 443.14 379.01 428.39 376.24 429.31 380.34 415.16 377.65 415.75 381.11 402.42 383.01 396.41 383.96 396.72 382.07 402.69 379.03 414.43 381.76 413.82 377.73 427.76 380.38 426.89 377.22 440.83 379.99 438.88 379.46 446.82 387.03 440.48 388.36 446.02 392.32 441.64 392.58 447.25 397.14 440.1 409.93 448 406.85 438.74 409.99 441.26 405.88 424.94 409.1 427.91 405.27 413.42 408.37 416.52 404.12 396.67 405.1 396.46 410.05 419.63 407.19 416.76 410.94 430.96 407.67 427.95 411.68 443.9 408.87 441.64 411.74 450.3 397.45 441.47 391.72 450.46" style="fill: rgb(38, 50, 56); transform-origin: 393.705px 423.435px;" id="el632yuvt93z5" class="animable"></polygon><path d="M416.77,450.64s7.09-1.91,12.82,1.64,9.83,13.64,9.83,13.64l-6.55-3.82s-5.73,3.55-8.19,2.73a13.51,13.51,0,0,1-3.54-1.64" style="fill: rgb(0, 255, 136); transform-origin: 428.095px 458.023px;" id="el0ki5t4zid3yd" class="animable"></path><path d="M440.43,467.09l-7.56-4.41c-1.25.75-6,3.42-8.35,2.62a13.39,13.39,0,0,1-3.68-1.71l.59-.8a13.39,13.39,0,0,0,3.41,1.56c1.83.62,6.23-1.72,7.77-2.68l.25-.15,5.47,3.19c-1.34-2.87-4.73-9.37-9-12-5.47-3.39-12.36-1.6-12.43-1.58l-.26-1c.3-.08,7.37-1.93,13.22,1.69s9.85,13.46,10,13.88Z" style="fill: rgb(38, 50, 56); transform-origin: 428.535px 458.338px;" id="elo7j78x36pqk" class="animable"></path><path d="M410,450.64s7.09-1.91,12.82,1.64,9.83,13.64,9.83,13.64l-6.55-3.82s-5.73,3.55-8.19,2.73a13.5,13.5,0,0,1-3.55-1.64" style="fill: rgb(0, 255, 136); transform-origin: 421.325px 458.023px;" id="elzh43nqxin1" class="animable"></path><path d="M433.61,467.09l-7.56-4.41c-1.25.75-6,3.42-8.35,2.62a13.78,13.78,0,0,1-3.69-1.71l.6-.8a13.16,13.16,0,0,0,3.41,1.56c1.83.62,6.23-1.72,7.76-2.68l.26-.15,5.47,3.19c-1.34-2.87-4.74-9.37-9-12-5.47-3.39-12.36-1.6-12.43-1.58l-.26-1c.3-.08,7.37-1.93,13.22,1.69s9.85,13.46,10,13.88Z" style="fill: rgb(38, 50, 56); transform-origin: 421.715px 458.338px;" id="elm7bryjt6f2" class="animable"></path><path d="M404.08,398.62H343.79c-8,0-14.43-7.94-14.43-17.73l-11.14-72.81c0-12.24,8.07-22.16,18-22.16h75.36c10,0,18,9.92,18,22.16L418.5,380.89C418.5,390.68,412,398.62,404.08,398.62Z" style="fill: rgb(0, 255, 136); transform-origin: 373.9px 342.27px;" id="eld3x62gcue1l" class="animable"></path><path d="M404.08,399.12H343.79c-8.24,0-14.93-8.18-14.93-18.23l-11.14-72.73c0-12.57,8.31-22.74,18.53-22.74h75.36c10.22,0,18.53,10.17,18.53,22.66L419,381C419,390.94,412.31,399.12,404.08,399.12Zm-67.83-112.7c-9.67,0-17.53,9.72-17.53,21.66l11.13,72.74c0,9.57,6.26,17.3,13.94,17.3h60.29c7.67,0,13.92-7.73,13.92-17.23L429.15,308c0-11.87-7.87-21.59-17.54-21.59Z" style="fill: rgb(38, 50, 56); transform-origin: 373.93px 342.27px;" id="elimma46t10h" class="animable"></path><g id="elhnvzbgjzb6"><circle cx="373.93" cy="322.21" r="32.09" style="fill: rgb(38, 50, 56); transform-origin: 373.93px 322.21px; transform: rotate(-76.53deg);" class="animable"></circle></g><path d="M373.93,354.8a32.59,32.59,0,1,1,32.59-32.59A32.63,32.63,0,0,1,373.93,354.8Zm0-64.18a31.59,31.59,0,1,0,31.59,31.59A31.62,31.62,0,0,0,373.93,290.62Z" style="fill: rgb(38, 50, 56); transform-origin: 373.93px 322.21px;" id="elrymubg3pfck" class="animable"></path><g id="el3e7t6bnkw9w"><circle cx="373.93" cy="327.19" r="32.09" style="fill: rgb(255, 255, 255); transform-origin: 373.93px 327.19px; transform: rotate(-45deg);" class="animable"></circle></g><path d="M373.93,359.78a32.59,32.59,0,1,1,32.59-32.59A32.63,32.63,0,0,1,373.93,359.78Zm0-64.18a31.59,31.59,0,1,0,31.59,31.59A31.62,31.62,0,0,0,373.93,295.6Z" style="fill: rgb(38, 50, 56); transform-origin: 373.93px 327.19px;" id="elvln4rtym8to" class="animable"></path><circle cx="373.93" cy="327.19" r="20.01" style="fill: rgb(38, 50, 56); transform-origin: 373.93px 327.19px;" id="elmve6ukh333m" class="animable"></circle><path d="M373.93,347.7a20.51,20.51,0,1,1,20.51-20.51A20.53,20.53,0,0,1,373.93,347.7Zm0-40a19.51,19.51,0,1,0,19.51,19.51A19.53,19.53,0,0,0,373.93,307.68Z" style="fill: rgb(38, 50, 56); transform-origin: 373.93px 327.19px;" id="els5ag29nqbm" class="animable"></path><circle cx="362.63" cy="319.57" r="8.93" style="fill: rgb(255, 255, 255); transform-origin: 362.63px 319.57px;" id="elqfdft9nhdp" class="animable"></circle><circle cx="363.94" cy="342.66" r="5.88" style="fill: rgb(255, 255, 255); transform-origin: 363.94px 342.66px;" id="eljkf19f8569" class="animable"></circle><path d="M361.91,364v5.78a11.33,11.33,0,0,0,22.65,0V364Z" style="fill: rgb(38, 50, 56); transform-origin: 373.235px 372.387px;" id="elrdwlwz1j9fe" class="animable"></path><path d="M373.24,381.56a11.83,11.83,0,0,1-11.83-11.82v-6.28h23.65v6.28A11.83,11.83,0,0,1,373.24,381.56Zm-10.83-17.1v5.28a10.83,10.83,0,0,0,21.65,0v-5.28Z" style="fill: rgb(38, 50, 56); transform-origin: 373.235px 372.51px;" id="elfuhhjfp92sr" class="animable"></path><path d="M365.16,377.67a11.32,11.32,0,0,0,16.16,0,11,11,0,0,0-16.16,0Z" style="fill: rgb(255, 255, 255); transform-origin: 373.24px 377.598px;" id="elnktcydaruhn" class="animable"></path><path d="M373.24,381.56A11.75,11.75,0,0,1,364.8,378l-.33-.34.32-.35a11.49,11.49,0,0,1,16.89,0l.33.35-.34.34A11.74,11.74,0,0,1,373.24,381.56Zm-7.38-3.9a10.83,10.83,0,0,0,14.75,0,10.49,10.49,0,0,0-14.75,0Z" style="fill: rgb(38, 50, 56); transform-origin: 373.24px 377.586px;" id="eln3rwbhmkgke" class="animable"></path><g id="elh91lhquk1zu"><circle cx="341.75" cy="361.35" r="8.49" style="fill: rgb(255, 255, 255); transform-origin: 341.75px 361.35px; transform: rotate(-76.24deg);" class="animable"></circle></g><g id="eluf7ubdvaxcl"><circle cx="406.09" cy="361.35" r="8.49" style="fill: rgb(255, 255, 255); transform-origin: 406.09px 361.35px; transform: rotate(-45deg);" class="animable"></circle></g><path d="M416.2,337.14c0,9.62,2,18.32,5.23,24.6l8.21-53.66a27.48,27.48,0,0,0-.35-4.39C421.75,307.64,416.2,321.11,416.2,337.14Z" style="fill: rgb(38, 50, 56); transform-origin: 422.92px 332.715px;" id="elaioriqa0qk4" class="animable"></path><path d="M421.69,363.34,421,362c-3.41-6.63-5.29-15.45-5.29-24.83,0-15.83,5.49-29.77,13.36-33.89l.61-.33.11.69a27.79,27.79,0,0,1,.36,4.47Zm7.21-58.86c-7.22,4.36-12.2,17.61-12.2,32.66,0,8.57,1.58,16.64,4.48,22.94l8-52.07A26.65,26.65,0,0,0,428.9,304.48Z" style="fill: rgb(38, 50, 56); transform-origin: 422.93px 333.145px;" id="el6neyb3unhfc" class="animable"></path><path d="M332.33,337.14c0-16.46-5.86-30.22-13.71-33.75a27.65,27.65,0,0,0-.4,4.69l8.36,54.63C330.11,356.38,332.33,347.27,332.33,337.14Z" style="fill: rgb(38, 50, 56); transform-origin: 325.275px 333.05px;" id="elbe5mkta7adl" class="animable"></path><path d="M326.3,364.23l-8.58-56.07a28.51,28.51,0,0,1,.41-4.85l.11-.64.59.27c8.24,3.7,14,17.76,14,34.2,0,9.78-2.12,19.19-5.82,25.81ZM319,304.14a26,26,0,0,0-.29,3.94l8.12,53.06c3.18-6.38,5-15,5-24C331.83,321.74,326.48,308.05,319,304.14Z" style="fill: rgb(38, 50, 56); transform-origin: 325.275px 333.45px;" id="elb21kvbvbuzw" class="animable"></path></g><g id="freepik--alien-2--inject-26" class="animable animator-active" style="transform-origin: 148.82px 358.093px;"><ellipse cx="148.81" cy="464.54" rx="128.67" ry="11.97" style="fill: rgb(38, 50, 56); transform-origin: 148.81px 464.54px;" id="el4cl9w78lbk4" class="animable"></ellipse><path d="M148.81,477c-63.49,0-129.17-4.66-129.17-12.47s65.68-12.47,129.17-12.47S278,456.74,278,464.54,212.31,477,148.81,477Zm0-23.94c-76.67,0-128.17,5.93-128.17,11.47S72.14,476,148.81,476,277,470.08,277,464.54,225.48,453.07,148.81,453.07Z" style="fill: rgb(38, 50, 56); transform-origin: 148.82px 464.53px;" id="elfasrrkvir5o" class="animable"></path><path d="M130.75,360.09a8.38,8.38,0,0,0-7.64,8.45v59.67a7.29,7.29,0,0,1-2,5.12,6.82,6.82,0,0,1-5.52,2.07l-.32,0c-3.41-.34-7.31-3.28-11.83-6.69-8.16-6.15-19.33-14.57-37-13.91-22.89.87-30.05,10.44-35.28,17.43a34.08,34.08,0,0,1-3.66,4.41c-1.07,1-2,1.86-2.91,2.6a8.22,8.22,0,0,0-2.32,9.32h0a8.17,8.17,0,0,0,12.85,3.22q1.67-1.41,3.58-3.19A47.33,47.33,0,0,0,44.31,442c4.31-5.76,7.71-10.31,22.79-10.88,11.81-.44,18.94,4.94,26.49,10.63,6,4.48,12.09,9.11,20,9.9l.56.06a23.35,23.35,0,0,0,25.29-23.29V368.26A8.19,8.19,0,0,0,130.75,360.09Z" style="fill: rgb(0, 255, 136); transform-origin: 80.5619px 406.888px;" id="el5uhvk6ddbvm" class="animable"></path><path d="M30,454.18a8.75,8.75,0,0,1-8.11-5.46,8.72,8.72,0,0,1,2.47-9.89c.93-.79,1.9-1.66,2.89-2.58a34.33,34.33,0,0,0,3.58-4.32c5.31-7.1,12.55-16.78,35.68-17.66,17.81-.66,29.07,7.82,37.29,14,4.46,3.36,8.31,6.27,11.58,6.6l.31,0a6.28,6.28,0,0,0,5.12-1.92,6.82,6.82,0,0,0,1.85-4.77V368.54a8.84,8.84,0,0,1,8.11-8.94h0a8.65,8.65,0,0,1,6.52,2.32,8.75,8.75,0,0,1,2.74,6.34v60.17a23.83,23.83,0,0,1-25.83,23.78l-.57,0c-8.09-.81-14.29-5.48-20.29-10-7.49-5.64-14.55-11-26.17-10.53-14.84.56-18.18,5-22.4,10.68a49,49,0,0,1-5.64,6.61c-1.22,1.15-2.43,2.23-3.59,3.21A8.5,8.5,0,0,1,30,454.18Zm38.47-38.94-1.92,0c-22.65.86-29.73,10.32-34.9,17.23A34.48,34.48,0,0,1,27.88,437c-1,.93-2,1.81-2.92,2.61a7.7,7.7,0,0,0-2.19,8.75,7.68,7.68,0,0,0,12.07,3c1.15-1,2.35-2,3.56-3.18a47.23,47.23,0,0,0,5.51-6.48c4.39-5.87,7.85-10.5,23.17-11.08,12-.45,19.18,5,26.8,10.72,5.9,4.45,12,9,19.8,9.82l.54.05A22.86,22.86,0,0,0,139,428.43V368.26a7.68,7.68,0,0,0-8.2-7.67h0a7.85,7.85,0,0,0-7.17,8v59.67a7.77,7.77,0,0,1-2.13,5.47,7.3,7.3,0,0,1-5.93,2.22l-.31,0c-3.56-.36-7.51-3.34-12.09-6.79C95.35,423.2,84.77,415.24,68.42,415.24Z" style="fill: rgb(38, 50, 56); transform-origin: 80.6498px 406.88px;" id="elfj9jq6wgtg7" class="animable"></path><path d="M51.08,474.61a8.19,8.19,0,0,1-3.81-15.44c1-.51,2.46-4.39,3.43-6.95,3.36-8.81,8.44-22.12,27.14-28.59,15.28-5.29,32,1.9,48.35,20.79a4.06,4.06,0,0,0,3,1.39,3.86,3.86,0,0,0,2.95-1.38,3.93,3.93,0,0,0,.93-2.53V360.79a8.19,8.19,0,1,1,16.37,0V441.9a20.28,20.28,0,0,1-20.14,20.28h-.13a20.33,20.33,0,0,1-15.39-7c-6.62-7.65-19.41-19.92-30.61-16-11.49,4-14.26,11.25-17.2,18.95-2.18,5.74-4.66,12.24-11.13,15.63A8.19,8.19,0,0,1,51.08,474.61Z" style="fill: rgb(0, 255, 136); transform-origin: 96.1674px 413.462px;" id="el9oymhmof7de" class="animable"></path><path d="M51.08,475.11a8.69,8.69,0,0,1-4-16.38c.81-.42,2.42-4.66,3.2-6.69,3.39-8.89,8.51-22.33,27.44-28.88,15.49-5.37,32.39,1.88,48.89,20.94a3.58,3.58,0,0,0,2.68,1.21,3.34,3.34,0,0,0,2.54-1.21,3.39,3.39,0,0,0,.81-2.2V360.79a8.69,8.69,0,1,1,17.37,0V441.9a20.77,20.77,0,0,1-20.64,20.78h-.13a20.87,20.87,0,0,1-15.77-7.21c-6.54-7.56-19.15-19.68-30.07-15.89-11.26,3.89-14,11.06-16.89,18.65-2.22,5.82-4.73,12.41-11.37,15.89A8.69,8.69,0,0,1,51.08,475.11Zm36.71-52.67A29.69,29.69,0,0,0,78,424.1c-18.49,6.4-23.51,19.57-26.84,28.29-1.38,3.63-2.61,6.67-3.67,7.22a7.69,7.69,0,1,0,7.14,13.62c6.3-3.3,8.74-9.71,10.9-15.36,3-7.81,5.79-15.19,17.49-19.24,11.49-4,24.45,8.43,31.16,16.18a19.82,19.82,0,0,0,15,6.87h.13A19.77,19.77,0,0,0,149,441.9V360.79a7.69,7.69,0,1,0-15.37,0V441.9a4.44,4.44,0,0,1-1,2.85,4.36,4.36,0,0,1-3.33,1.56,4.63,4.63,0,0,1-3.42-1.56C113.05,430,100.09,422.44,87.79,422.44Z" style="fill: rgb(38, 50, 56); transform-origin: 96.226px 413.458px;" id="el74oalvooi18" class="animable"></path><path d="M139.72,458.78c-5.64,1.76-13,4.22-20.78-5.28s-14.08-19.37-26.41-20.78S67.89,439.06,65.42,451a77.58,77.58,0,0,1-6.69,19.72l0,.12c3.7-3.56,5.56-8.41,7.24-12.82,2.94-7.7,5.71-15,17.2-18.95,11.2-3.88,24,8.39,30.61,16a20.33,20.33,0,0,0,15.39,7h.13a20.2,20.2,0,0,0,11.45-3.64A6.28,6.28,0,0,0,139.72,458.78Z" style="fill: rgb(255, 255, 255); transform-origin: 99.74px 451.697px;" id="el9nmarjffnr7" class="animable"></path><path d="M58.46,471.84l-.26-1.16.09-.17a77.78,77.78,0,0,0,6.64-19.58c2.47-12,14.62-20.19,27.66-18.7,11.08,1.26,17.39,9.2,24.06,17.61.88,1.11,1.77,2.23,2.68,3.34,7.44,9.13,14.42,6.94,20,5.19l.22-.07a6.44,6.44,0,0,1,1.15-.25l2-.25L141.07,459a20.56,20.56,0,0,1-11.74,3.73h-.13a20.87,20.87,0,0,1-15.77-7.21c-6.54-7.56-19.14-19.68-30.07-15.89-11.26,3.89-14,11.06-16.89,18.65-1.67,4.38-3.57,9.35-7.37,13Zm31.07-38.79c-11.37,0-21.44,7.51-23.62,18.08A84.69,84.69,0,0,1,60.61,468a42.68,42.68,0,0,0,4.93-10.1c3-7.81,5.79-15.19,17.49-19.24,11.49-4,24.45,8.43,31.16,16.18a19.82,19.82,0,0,0,15,6.87h.13a19.4,19.4,0,0,0,7.47-1.52c-5.2,1.37-11.65,1.75-18.25-6.35-.91-1.11-1.8-2.24-2.68-3.35-6.54-8.24-12.72-16-23.39-17.24A26.8,26.8,0,0,0,89.53,433.05Z" style="fill: rgb(38, 50, 56); transform-origin: 100.45px 451.948px;" id="elv7o9n2ao7" class="animable"></path><path d="M163.38,360.09a8.38,8.38,0,0,1,7.64,8.45v59.67a7.29,7.29,0,0,0,2,5.12,6.82,6.82,0,0,0,5.52,2.07l.31,0c3.42-.34,7.32-3.28,11.84-6.69,8.16-6.15,19.33-14.57,37-13.91,22.9.87,30.06,10.44,35.29,17.43a34.08,34.08,0,0,0,3.66,4.41c1.06,1,2,1.86,2.9,2.6a8.21,8.21,0,0,1,2.33,9.32h0A8.18,8.18,0,0,1,259,451.75q-1.65-1.41-3.57-3.19a48.14,48.14,0,0,1-5.58-6.55c-4.3-5.76-7.7-10.31-22.78-10.88-11.81-.44-18.94,4.94-26.5,10.63-5.94,4.48-12.08,9.11-20,9.9l-.55.06a23.37,23.37,0,0,1-25.3-23.29V368.26A8.2,8.2,0,0,1,163.38,360.09Z" style="fill: rgb(0, 255, 136); transform-origin: 213.588px 406.881px;" id="elugawcjcmie" class="animable"></path><path d="M264.18,454.18a8.48,8.48,0,0,1-5.54-2.05c-1.17-1-2.38-2.07-3.59-3.21a47.6,47.6,0,0,1-5.64-6.61c-4.22-5.65-7.56-10.12-22.4-10.68-11.62-.45-18.69,4.89-26.16,10.52-6,4.53-12.21,9.2-20.31,10l-.55,0a23.85,23.85,0,0,1-25.85-23.78V368.26a8.76,8.76,0,0,1,2.75-6.34,8.65,8.65,0,0,1,6.52-2.32h0a8.84,8.84,0,0,1,8.11,8.94v59.67a6.85,6.85,0,0,0,1.84,4.77,6.3,6.3,0,0,0,5.13,1.92l.31,0c3.27-.33,7.12-3.24,11.58-6.6,8.22-6.19,19.48-14.66,37.28-14,23.14.88,30.38,10.56,35.67,17.63a33.67,33.67,0,0,0,3.6,4.35c1,.92,2,1.79,2.89,2.58a8.72,8.72,0,0,1,2.47,9.89,8.75,8.75,0,0,1-8.11,5.46Zm-38.52-23.57,1.38,0c15.32.58,18.79,5.21,23.17,11.08a47.93,47.93,0,0,0,5.52,6.48c1.21,1.13,2.4,2.2,3.56,3.18a7.55,7.55,0,0,0,6.77,1.58,7.63,7.63,0,0,0,5.3-4.61,7.72,7.72,0,0,0-2.19-8.75c-.94-.8-1.92-1.68-2.92-2.61a33.49,33.49,0,0,1-3.69-4.44c-5.2-7-12.28-16.41-34.94-17.27-17.44-.65-28.54,7.71-36.64,13.81-4.58,3.45-8.53,6.43-12.09,6.79l-.31,0a7.27,7.27,0,0,1-5.93-2.22,7.73,7.73,0,0,1-2.13-5.47V368.54a7.85,7.85,0,0,0-7.18-8,7.68,7.68,0,0,0-8.2,7.67v60.17a22.87,22.87,0,0,0,24.76,22.79l.54-.05c7.82-.79,13.91-5.37,19.79-9.81C207.57,435.83,214.5,430.61,225.66,430.61Z" style="fill: rgb(38, 50, 56); transform-origin: 213.525px 406.895px;" id="elbu2q2jad5e7" class="animable"></path><path d="M245.51,474.61a8.19,8.19,0,0,0,3.81-15.44c-1-.51-2.46-4.39-3.43-6.95-3.36-8.81-8.44-22.12-27.14-28.59-15.28-5.29-32,1.9-48.35,20.79a4.06,4.06,0,0,1-3,1.39,3.86,3.86,0,0,1-3-1.38,3.93,3.93,0,0,1-.93-2.53V360.79a8.19,8.19,0,1,0-16.37,0V441.9a20.28,20.28,0,0,0,20.14,20.28h.13a20.33,20.33,0,0,0,15.39-7c6.62-7.65,19.41-19.92,30.61-16,11.49,4,14.26,11.25,17.2,18.95,2.18,5.74,4.66,12.24,11.13,15.63A8.19,8.19,0,0,0,245.51,474.61Z" style="fill: rgb(0, 255, 136); transform-origin: 200.398px 413.463px;" id="el43ah0h1p13e" class="animable"></path><path d="M245.51,475.11a8.69,8.69,0,0,1-4-1c-6.64-3.48-9.15-10.07-11.37-15.89-2.89-7.59-5.63-14.76-16.89-18.65-10.93-3.79-23.53,8.33-30.07,15.89a20.87,20.87,0,0,1-15.77,7.21h-.13a20.77,20.77,0,0,1-20.64-20.78V360.79a8.69,8.69,0,1,1,17.37,0V441.9a3.39,3.39,0,0,0,.81,2.2,3.35,3.35,0,0,0,2.57,1.21A3.57,3.57,0,0,0,170,444.1c16.5-19.06,33.4-26.3,48.89-20.94,18.93,6.55,24.05,20,27.44,28.88.78,2,2.39,6.27,3.2,6.69a8.69,8.69,0,0,1-4,16.38Zm-36.58-37.25a14,14,0,0,1,4.63.77c11.7,4.05,14.52,11.43,17.49,19.24,2.16,5.65,4.6,12.06,10.9,15.36a7.68,7.68,0,1,0,7.14-13.61c-1.06-.56-2.29-3.6-3.67-7.23-3.33-8.72-8.35-21.89-26.84-28.29-15.06-5.22-31.6,1.92-47.8,20.65a4.62,4.62,0,0,1-3.39,1.56,4.37,4.37,0,0,1-3.36-1.56,4.44,4.44,0,0,1-1-2.85V360.79a7.69,7.69,0,1,0-15.37,0V441.9a19.77,19.77,0,0,0,19.65,19.78h.12a19.82,19.82,0,0,0,15-6.87C188.22,448.09,198.75,437.86,208.93,437.86Z" style="fill: rgb(38, 50, 56); transform-origin: 200.404px 413.458px;" id="el9uslmhyr80p" class="animable"></path><path d="M167.26,462.18h.13a20.33,20.33,0,0,0,15.39-7c6.62-7.65,19.41-19.92,30.61-16,11.49,4,14.26,11.25,17.2,18.95.5,1.32,1,2.68,1.6,4-5-16.66-15.48-31.78-29-29.07-15.8,3.16-20.75,18.71-35.29,24.23s-20.74-15.34-20.74-15.34a20.28,20.28,0,0,0,20.14,20.28Z" style="fill: rgb(255, 255, 255); transform-origin: 189.675px 447.487px;" id="el1bog5p6j13i" class="animable"></path><path d="M167.39,462.68h-.13a20.77,20.77,0,0,1-20.64-20.78v-3.43l1,3.29c0,.11,3.39,11.16,10.69,14.77a11.35,11.35,0,0,0,9.39.24c6.56-2.49,11.22-7.13,15.73-11.62,5.37-5.35,10.93-10.89,19.65-12.63,14.41-2.88,24.75,13.3,29.61,29.41l-.94.35c-.57-1.33-1.06-2.62-1.61-4-2.89-7.59-5.63-14.76-16.89-18.65-10.93-3.79-23.53,8.33-30.07,15.89A20.87,20.87,0,0,1,167.39,462.68Zm-.12-1h.12a19.82,19.82,0,0,0,15-6.87c6.71-7.75,19.67-20.16,31.16-16.18a26,26,0,0,1,9.82,5.74c-5.19-7.46-12-12.49-20.13-10.87-8.42,1.68-13.63,6.87-19.14,12.36-4.58,4.56-9.32,9.28-16.07,11.85a12.35,12.35,0,0,1-10.19-.28c-5.07-2.51-8.27-8.19-9.9-11.9a19.78,19.78,0,0,0,19.32,16.15Z" style="fill: rgb(38, 50, 56); transform-origin: 189.655px 447.432px;" id="el8ep2ju8ypxn" class="animable"></path><path d="M83.78,314.77h0a10.56,10.56,0,0,0,7.89,3.53h7.4v5.18H89.4a10.65,10.65,0,0,0-5,1.24l-.64.34Z" style="fill: rgb(0, 255, 136); transform-origin: 91.415px 319.915px;" id="elpjz425aoagg" class="animable"></path><path d="M83.28,325.9V313.46l.88,1a10.05,10.05,0,0,0,7.51,3.37h7.9V324H89.4a10.15,10.15,0,0,0-4.74,1.18Zm1-9.92v8.25A11.13,11.13,0,0,1,89.4,323h9.17V318.8h-6.9A11.12,11.12,0,0,1,84.28,316Z" style="fill: rgb(38, 50, 56); transform-origin: 91.425px 319.68px;" id="elw3xa4p806qn" class="animable"></path><rect x="71.57" y="308.22" width="13.1" height="23.4" rx="6.23" style="fill: rgb(0, 255, 136); transform-origin: 78.12px 319.92px;" id="elqpi1frgcvt" class="animable"></rect><path d="M78.45,332.12H77.8a6.74,6.74,0,0,1-6.73-6.73V314.44a6.73,6.73,0,0,1,6.73-6.72h.65a6.73,6.73,0,0,1,6.73,6.72v10.95A6.74,6.74,0,0,1,78.45,332.12Zm-.65-23.4a5.73,5.73,0,0,0-5.73,5.72v10.95a5.74,5.74,0,0,0,5.73,5.73h.65a5.74,5.74,0,0,0,5.73-5.73V314.44a5.73,5.73,0,0,0-5.73-5.72Z" style="fill: rgb(38, 50, 56); transform-origin: 78.125px 319.92px;" id="elbf4pyvikyzp" class="animable"></path><path d="M113.32,270.32h0a10.57,10.57,0,0,0,3,8.1l5.19,5.27-3.69,3.63L111,280.43a10.6,10.6,0,0,0-4.37-2.68l-.69-.21Z" style="fill: rgb(0, 255, 136); transform-origin: 113.725px 278.82px;" id="el3hq4rn208f8" class="animable"></path><path d="M117.82,288l-7.14-7.25a10,10,0,0,0-4.16-2.55l-1.49-.47L113.9,269l-.08,1.31a10.08,10.08,0,0,0,2.86,7.72l5.54,5.63Zm-10.9-10.72a11.12,11.12,0,0,1,4.48,2.77l6.43,6.54,3-2.93L116,278.77a11,11,0,0,1-3.16-7.25Z" style="fill: rgb(38, 50, 56); transform-origin: 113.625px 278.5px;" id="elttv70vx2x6d" class="animable"></path><g id="el3vgntp5c2qj"><rect x="99.13" y="258.19" width="13.1" height="23.4" rx="6.23" style="fill: rgb(0, 255, 136); transform-origin: 105.68px 269.89px; transform: rotate(45.47deg);" class="animable"></rect></g><path d="M102,280.68a6.67,6.67,0,0,1-4.79-2l-.46-.47a6.74,6.74,0,0,1,.08-9.51l7.81-7.67a6.73,6.73,0,0,1,9.51.08l.45.46a6.72,6.72,0,0,1-.08,9.51l-7.8,7.68A6.73,6.73,0,0,1,102,280.68Zm7.35-20.58a5.67,5.67,0,0,0-4,1.64l-7.81,7.67a5.74,5.74,0,0,0-.07,8.1l.46.47a5.73,5.73,0,0,0,8.1.06l7.8-7.67a5.72,5.72,0,0,0,.07-8.1l-.45-.46A5.72,5.72,0,0,0,109.35,260.1Z" style="fill: rgb(38, 50, 56); transform-origin: 105.679px 269.891px;" id="elu9zwarrmpyc" class="animable"></path><path d="M177.4,270.32h0a10.57,10.57,0,0,1-3,8.1l-5.19,5.27,3.69,3.63,6.79-6.89a10.48,10.48,0,0,1,4.37-2.68l.69-.21Z" style="fill: rgb(0, 255, 136); transform-origin: 176.98px 278.82px;" id="ellt6u7b8k8ll" class="animable"></path><path d="M172.9,288l-4.4-4.33,5.54-5.63a10.08,10.08,0,0,0,2.86-7.72l-.09-1.31,8.88,8.72-1.49.47a10.07,10.07,0,0,0-4.17,2.55Zm-3-4.34,3,2.93,6.43-6.54a11.05,11.05,0,0,1,4.48-2.77l-5.89-5.79a11,11,0,0,1-3.16,7.25Z" style="fill: rgb(38, 50, 56); transform-origin: 177.095px 278.505px;" id="elwq8msmvjj7n" class="animable"></path><g id="el71qocnxdp1w"><rect x="178.49" y="258.19" width="13.1" height="23.4" rx="6.23" style="fill: rgb(0, 255, 136); transform-origin: 185.04px 269.89px; transform: rotate(134.52deg);" class="animable"></rect></g><path d="M188.71,280.68a6.7,6.7,0,0,1-4.71-1.92l-7.81-7.68a6.74,6.74,0,0,1-.08-9.51l.46-.46a6.73,6.73,0,0,1,9.51-.08l7.81,7.67a6.74,6.74,0,0,1,.08,9.51l-.46.47A6.73,6.73,0,0,1,188.71,280.68Zm-7.34-20.58h-.05a5.69,5.69,0,0,0-4,1.71l-.46.46a5.74,5.74,0,0,0,.07,8.1L184.7,278a5.73,5.73,0,0,0,8.1-.06l.45-.47a5.72,5.72,0,0,0-.07-8.1l-7.8-7.67A5.68,5.68,0,0,0,181.37,260.1Z" style="fill: rgb(38, 50, 56); transform-origin: 185.04px 269.891px;" id="elp6s8r6vljpn" class="animable"></path><path d="M209.19,314.77h0a10.54,10.54,0,0,1-7.88,3.53h-7.4v5.18h9.67a10.64,10.64,0,0,1,5,1.24l.64.34Z" style="fill: rgb(0, 255, 136); transform-origin: 201.565px 319.915px;" id="el3sda20o3zyu" class="animable"></path><path d="M209.69,325.9l-1.37-.74a10.18,10.18,0,0,0-4.74-1.18H193.41V317.8h7.9a10.09,10.09,0,0,0,7.51-3.37l.87-1ZM194.41,323h9.17a11.09,11.09,0,0,1,5.11,1.25V316a11.12,11.12,0,0,1-7.38,2.82h-6.9Z" style="fill: rgb(38, 50, 56); transform-origin: 201.55px 319.665px;" id="eljnf9365cukc" class="animable"></path><g id="elrdjag8y2di8"><rect x="208.3" y="308.22" width="13.1" height="23.4" rx="6.23" style="fill: rgb(0, 255, 136); transform-origin: 214.85px 319.92px; transform: rotate(180deg);" class="animable"></rect></g><path d="M215.18,332.12h-.65a6.74,6.74,0,0,1-6.73-6.73V314.44a6.73,6.73,0,0,1,6.73-6.72h.65a6.72,6.72,0,0,1,6.72,6.72v10.95A6.73,6.73,0,0,1,215.18,332.12Zm-.65-23.4a5.73,5.73,0,0,0-5.73,5.72v10.95a5.74,5.74,0,0,0,5.73,5.73h.65a5.73,5.73,0,0,0,5.72-5.73V314.44a5.73,5.73,0,0,0-5.72-5.72Z" style="fill: rgb(38, 50, 56); transform-origin: 214.85px 319.92px;" id="elqiksxbewvxl" class="animable"></path><circle cx="145.9" cy="323.26" r="52.82" style="fill: rgb(0, 255, 136); transform-origin: 145.9px 323.26px;" id="elln8aejov7b" class="animable"></circle><path d="M145.9,376.58a53.32,53.32,0,1,1,53.32-53.32A53.38,53.38,0,0,1,145.9,376.58Zm0-105.64a52.32,52.32,0,1,0,52.32,52.32A52.38,52.38,0,0,0,145.9,270.94Z" style="fill: rgb(38, 50, 56); transform-origin: 145.9px 323.26px;" id="elkrbdps62mnb" class="animable"></path><path d="M145.9,358.09A28.75,28.75,0,0,1,128,351.8a1.5,1.5,0,0,1,1.87-2.34A25.65,25.65,0,0,0,164,347.57a1.51,1.51,0,0,1,2.12,0,1.49,1.49,0,0,1,0,2.12A28.44,28.44,0,0,1,145.9,358.09Z" style="fill: rgb(38, 50, 56); transform-origin: 147.031px 352.613px;" id="el95v819q9y8r" class="animable"></path><g id="elu5a8levsvj9"><circle cx="145.9" cy="311.95" r="27.15" style="fill: rgb(38, 50, 56); transform-origin: 145.9px 311.95px; transform: rotate(-45deg);" class="animable"></circle></g><path d="M145.9,339.6A27.66,27.66,0,1,1,173.55,312,27.68,27.68,0,0,1,145.9,339.6Zm0-54.31A26.66,26.66,0,1,0,172.55,312,26.68,26.68,0,0,0,145.9,285.29Z" style="fill: rgb(38, 50, 56); transform-origin: 145.89px 311.94px;" id="elxpm7h0o5n1b" class="animable"></path><g id="elqzh6c9dc2k"><circle cx="145.9" cy="316.16" r="27.15" style="fill: rgb(255, 255, 255); transform-origin: 145.9px 316.16px; transform: rotate(-76.87deg);" class="animable"></circle></g><path d="M145.9,343.82a27.66,27.66,0,1,1,27.65-27.66A27.69,27.69,0,0,1,145.9,343.82Zm0-54.31a26.66,26.66,0,1,0,26.65,26.65A26.67,26.67,0,0,0,145.9,289.51Z" style="fill: rgb(38, 50, 56); transform-origin: 145.89px 316.16px;" id="elivxln846x6o" class="animable"></path><circle cx="145.9" cy="316.16" r="16.93" style="fill: rgb(38, 50, 56); transform-origin: 145.9px 316.16px;" id="elzjzgcefecwa" class="animable"></circle><path d="M145.9,333.59a17.43,17.43,0,1,1,17.43-17.43A17.45,17.45,0,0,1,145.9,333.59Zm0-33.86a16.43,16.43,0,1,0,16.43,16.43A16.45,16.45,0,0,0,145.9,299.73Z" style="fill: rgb(38, 50, 56); transform-origin: 145.9px 316.16px;" id="elzxsvhojqcqe" class="animable"></path><g id="elg8h7u3n4hww"><circle cx="136.34" cy="309.71" r="7.56" style="fill: rgb(255, 255, 255); transform-origin: 136.34px 309.71px; transform: rotate(-76.67deg);" class="animable"></circle></g><circle cx="137.44" cy="329.25" r="4.98" style="fill: rgb(255, 255, 255); transform-origin: 137.44px 329.25px;" id="el2d29v06wkjx" class="animable"></circle><path d="M186.29,304.2c0,3.06-1.89,5.53-4.22,5.53s-4.21-2.47-4.21-5.53,1.88-5.53,4.21-5.53S186.29,301.15,186.29,304.2Z" style="fill: rgb(38, 50, 56); transform-origin: 182.075px 304.2px;" id="elulflji4ve98" class="animable"></path><path d="M182.07,310.23c-2.6,0-4.71-2.7-4.71-6s2.11-6,4.71-6,4.72,2.71,4.72,6S184.67,310.23,182.07,310.23Zm0-11.06c-2,0-3.71,2.26-3.71,5s1.66,5,3.71,5,3.72-2.25,3.72-5S184.12,299.17,182.07,299.17Z" style="fill: rgb(38, 50, 56); transform-origin: 182.075px 304.23px;" id="elhwz7iwhhzcl" class="animable"></path><path d="M189.45,320.8c0,2-1.18,3.68-2.64,3.68s-2.63-1.65-2.63-3.68,1.18-3.69,2.63-3.69S189.45,318.76,189.45,320.8Z" style="fill: rgb(38, 50, 56); transform-origin: 186.815px 320.795px;" id="el2mqfezm9wu5" class="animable"></path><path d="M186.81,325c-1.72,0-3.13-1.87-3.13-4.18s1.41-4.19,3.13-4.19,3.14,1.88,3.14,4.19S188.54,325,186.81,325Zm0-7.37c-1.15,0-2.13,1.46-2.13,3.19s1,3.18,2.13,3.18,2.14-1.46,2.14-3.18S188,317.61,186.81,317.61Z" style="fill: rgb(38, 50, 56); transform-origin: 186.815px 320.815px;" id="elsoi8rvfop8" class="animable"></path><path d="M209.72,378H82.08l-.15-.17a84.08,84.08,0,1,1,127.94,0ZM82.54,377H209.26a83.08,83.08,0,1,0-126.72,0Z" style="fill: rgb(38, 50, 56); transform-origin: 145.9px 308.593px;" id="elzm8hib144aa" class="animable"></path><g id="elrlw428sbs1e"><ellipse cx="179.69" cy="273.16" rx="19.26" ry="33.65" style="fill: rgb(255, 255, 255); opacity: 0.43; transform-origin: 179.69px 273.16px; transform: rotate(-59.77deg);" class="animable"></ellipse></g><path d="M196.74,275.52c-2.65,4.55-11.23,4.48-19.16-.14s-12.23-12.06-9.58-16.6,11.23-4.48,19.16.14S199.39,271,196.74,275.52Z" style="fill: rgb(255, 255, 255); transform-origin: 182.37px 267.152px;" id="el0ra3e8rgtqf" class="animable"></path><rect x="73.49" y="372.15" width="144.83" height="13.74" rx="6.53" style="fill: rgb(38, 50, 56); transform-origin: 145.905px 379.02px;" id="elo7qoxmzy8u" class="animable"></rect><path d="M211.78,386.39H80a7,7,0,0,1-7-7v-.68a7,7,0,0,1,7-7H211.78a7,7,0,0,1,7,7v.68A7,7,0,0,1,211.78,386.39ZM80,372.65a6,6,0,0,0-6,6v.68a6,6,0,0,0,6,6H211.78a6,6,0,0,0,6-6v-.68a6,6,0,0,0-6-6Z" style="fill: rgb(38, 50, 56); transform-origin: 145.89px 379.05px;" id="eltdokjff1d4p" class="animable"></path></g><g id="freepik--alien-1--inject-26" class="animable" style="transform-origin: 259.253px 140.835px;"><ellipse cx="261.18" cy="204.32" rx="53.57" ry="42.8" style="fill: rgb(38, 50, 56); transform-origin: 261.18px 204.32px;" id="elpdns2w4973" class="animable"></ellipse><path d="M261.18,247.62c-29.82,0-54.07-19.42-54.07-43.3S231.36,161,261.18,161s54.07,19.43,54.07,43.31S291,247.62,261.18,247.62Zm0-85.61c-29.26,0-53.07,19-53.07,42.31s23.81,42.3,53.07,42.3,53.07-19,53.07-42.3S290.45,162,261.18,162Z" style="fill: rgb(38, 50, 56); transform-origin: 261.18px 204.31px;" id="el7sejc8e55h" class="animable"></path><path d="M302.39,213.82a43.09,43.09,0,0,0,1.06-9.5c0-23.64-18.92-42.81-42.27-42.81s-42.27,19.17-42.27,42.81a43.09,43.09,0,0,0,1.06,9.5Z" style="fill: rgb(186, 186, 186); transform-origin: 261.18px 187.665px;" id="elteoiyvb1wsg" class="animable"></path><path d="M302.79,214.32H219.57l-.09-.39a44,44,0,0,1-1.07-9.61c0-23.88,19.19-43.31,42.77-43.31S304,180.44,304,204.32a44.09,44.09,0,0,1-1.07,9.61Zm-82.42-1H302a42.89,42.89,0,0,0,1-9C303,181,284.21,162,261.18,162s-41.77,19-41.77,42.31A42.82,42.82,0,0,0,220.37,213.32Z" style="fill: rgb(38, 50, 56); transform-origin: 261.205px 187.665px;" id="el4q8wm0lyl9" class="animable"></path><rect x="218.72" y="201" width="84.73" height="1" style="fill: rgb(38, 50, 56); transform-origin: 261.085px 201.5px;" id="el9p96uuxsu94" class="animable"></rect><rect x="221.66" y="189.8" width="79.26" height="1" style="fill: rgb(38, 50, 56); transform-origin: 261.29px 190.3px;" id="elpfi0krek57" class="animable"></rect><rect x="227.71" y="178.66" width="66.85" height="1" style="fill: rgb(38, 50, 56); transform-origin: 261.135px 179.16px;" id="elwmq0jleih0c" class="animable"></rect><path d="M193.41,168s-5-12.4-9.79-19.27-12.72-6.33-15.13-.14,4.53,7.3,6.94,9,11.45,11.42,11.79,12.79-6.68,1.37-10.66,3.44c-6.12,3.19-8.4,12-7.37,15.4S177,192.3,177,192.3a12,12,0,0,0,4.85,5.41c3.78,2.4,10.31.79,10.68-3.33.28-3-1.83-5.06-4.24-6.09s-2.75-4.12-1.37-4.47,2.75,5.16,10.31,4.13c0,0,3.1,11.69,15.13,13.75s37.48-17.19,37.48-17.19l.68-10.66s-25.78,16.5-34,18.22-13.07-6.18-13.07-6.18,0-9.29,2.75-13.07,10-4.12,10-7.56-5.15-7.57-9.62-4.82-4.82,10-6.19,11S193.41,168,193.41,168Z" style="fill: rgb(0, 255, 136); transform-origin: 209.255px 172.808px;" id="ely5pkmzq9gqf" class="animable"></path><path d="M214.26,202.35a11,11,0,0,1-2-.16c-10.9-1.86-14.69-11.55-15.4-13.69a9.47,9.47,0,0,1-8.87-3.35c-.31-.33-.83-.89-1-.84-.33.08-.4.52-.42.71a3,3,0,0,0,1.87,2.81c3.15,1.35,4.8,3.75,4.54,6.59a5,5,0,0,1-3.07,4,9,9,0,0,1-8.38-.32,13,13,0,0,1-4.91-5.32c-1.47,0-6.92-.09-7.92-3.42-1.1-3.65,1.31-12.7,7.62-16a26.82,26.82,0,0,1,6.91-2c1.39-.27,3.28-.64,3.51-1-.3-1-9-10.55-11.61-12.43a14.81,14.81,0,0,0-2.06-1.07c-2.82-1.31-7.09-3.29-5.05-8.53a7.65,7.65,0,0,1,6.31-5.09c3.51-.43,7.14,1.49,9.69,5.12,4.53,6.48,9.26,17.94,9.8,19.25,2.74,2.21,5.6,3.76,6.16,3.35a8.11,8.11,0,0,0,1.11-2.66c.87-2.74,2.05-6.49,5.11-8.37a7,7,0,0,1,10.39,5.24c0,2.17-2.3,3.22-4.74,4.33-1.94.89-4.13,1.89-5.32,3.52-2.44,3.36-2.64,11.45-2.66,12.63.63.95,5.2,7.36,12.46,5.84,8.07-1.68,33.62-18,33.87-18.15l.84-.53-.77,11.87-.18.14C249.11,185.66,226.89,202.35,214.26,202.35Zm-16.7-15,.12.43c0,.11,3.16,11.41,14.73,13.39,11.16,1.91,34.59-15.25,36.9-17l.61-9.45c-4.56,2.89-25.87,16.2-33.37,17.76-8.51,1.78-13.55-6.33-13.6-6.41l-.07-.12v-.14c0-.39,0-9.49,2.85-13.36,1.34-1.86,3.66-2.91,5.71-3.85,2.23-1,4.16-1.89,4.16-3.42a5.65,5.65,0,0,0-3.1-4.42,5.54,5.54,0,0,0-5.76,0c-2.75,1.69-3.87,5.23-4.69,7.82-.49,1.57-.85,2.7-1.46,3.16-1.57,1.17-6.13-2.35-7.49-3.45l-.1-.09-.05-.12c0-.12-5-12.42-9.74-19.17-2.33-3.32-5.61-5.08-8.75-4.7a6.72,6.72,0,0,0-5.5,4.46c-1.7,4.37,1.62,5.9,4.54,7.26a14.12,14.12,0,0,1,2.22,1.17c2.39,1.7,11.6,11.55,12,13.08a.85.85,0,0,1-.12.69c-.42.67-1.71.94-4.16,1.42a26,26,0,0,0-6.64,1.9c-5.78,3-8.11,11.51-7.12,14.8.9,3,7.19,2.7,7.26,2.7l.37,0,.13.35a11.73,11.73,0,0,0,4.65,5.16,8.07,8.07,0,0,0,7.4.27,4.12,4.12,0,0,0,2.52-3.23c.3-3.38-2.66-5-3.94-5.58a4,4,0,0,1-2.48-3.81,1.65,1.65,0,0,1,1.18-1.6c.7-.18,1.25.4,1.94,1.13,1.37,1.46,3.45,3.66,8.43,3Z" style="fill: rgb(38, 50, 56); transform-origin: 209.263px 172.766px;" id="el17zsbkyrpbl" class="animable"></path><path d="M177,192.3s5.55-.26,5.55-5.41-.1-10.29,3.34-10.29" style="fill: rgb(0, 255, 136); transform-origin: 181.445px 184.45px;" id="eloxt77q6t27o" class="animable"></path><path d="M177,192.8l0-1c.21,0,5.08-.3,5.08-4.91v-.41a33.28,33.28,0,0,1,.42-6.93c.52-2.29,1.67-3.45,3.42-3.45v1c-.86,0-1.91.31-2.44,2.67a32.39,32.39,0,0,0-.4,6.71v.41C183,192.46,177,192.79,177,192.8Z" style="fill: rgb(38, 50, 56); transform-origin: 181.46px 184.45px;" id="elfxggsnalyi" class="animable"></path><path d="M326.14,168s5-12.4,9.8-19.27,12.71-6.33,15.12-.14-4.53,7.3-6.94,9S332.68,169,332.33,170.41s6.68,1.37,10.66,3.44c6.13,3.19,8.41,12,7.38,15.4s-7.77,3.05-7.77,3.05a12,12,0,0,1-4.86,5.41c-3.78,2.4-10.3.79-10.68-3.33-.28-3,1.84-5.06,4.24-6.09s2.75-4.12,1.38-4.47S329.93,189,322.36,188c0,0-3.09,11.69-15.12,13.75s-37.48-17.19-37.48-17.19l-.69-10.66s25.79,16.5,34,18.22,13.06-6.18,13.06-6.18,0-9.29-2.75-13.07-10-4.12-10-7.56,5.16-7.57,9.63-4.82,4.81,10,6.19,11S326.14,168,326.14,168Z" style="fill: rgb(0, 255, 136); transform-origin: 310.315px 172.833px;" id="els15fpknc3h9" class="animable"></path><path d="M305.3,202.35c-12.63,0-34.85-16.69-35.84-17.44l-.18-.14-.77-11.87.83.53c.26.17,25.8,16.47,33.87,18.15,7.29,1.52,11.84-4.89,12.46-5.84,0-1.18-.21-9.27-2.65-12.63-1.19-1.63-3.39-2.63-5.32-3.52-2.44-1.11-4.75-2.16-4.75-4.33A7,7,0,0,1,313.34,160c3.06,1.88,4.25,5.63,5.12,8.37a7.89,7.89,0,0,0,1.11,2.66c.55.41,3.42-1.14,6.16-3.35.53-1.3,5.26-12.77,9.8-19.25,2.54-3.63,6.17-5.54,9.69-5.12a7.68,7.68,0,0,1,6.31,5.09c2,5.24-2.23,7.22-5.06,8.53a14.63,14.63,0,0,0-2.05,1.07c-2.63,1.88-11.32,11.43-11.6,12.52a15.91,15.91,0,0,0,3.49.88,26.71,26.71,0,0,1,6.91,2c6.31,3.28,8.72,12.33,7.63,16-1,3.33-6.46,3.44-7.92,3.42a13.09,13.09,0,0,1-4.92,5.32,9,9,0,0,1-8.37.32,5,5,0,0,1-3.08-4c-.25-2.84,1.4-5.24,4.54-6.59A3,3,0,0,0,333,185c0-.19-.09-.63-.42-.71-.13,0-.66.51-1,.84a9.48,9.48,0,0,1-8.87,3.35c-.71,2.14-4.5,11.83-15.4,13.69A12,12,0,0,1,305.3,202.35Zm-35.05-18.1c2.3,1.71,25.73,18.87,36.9,17,11.58-2,14.7-13.28,14.73-13.39l.11-.43.44.06c5,.68,7.05-1.52,8.43-3,.69-.73,1.24-1.31,1.94-1.13a1.63,1.63,0,0,1,1.17,1.6,4,4,0,0,1-2.47,3.81c-1.29.55-4.25,2.2-3.94,5.58a4.1,4.1,0,0,0,2.52,3.23,8,8,0,0,0,7.39-.27,11.72,11.72,0,0,0,4.66-5.16l.12-.35.38,0c.06,0,6.35.32,7.26-2.7,1-3.29-1.35-11.8-7.13-14.8a25.78,25.78,0,0,0-6.64-1.9c-2.44-.48-3.74-.75-4.16-1.42a.88.88,0,0,1-.11-.69c.38-1.53,9.6-11.38,12-13.08a15.07,15.07,0,0,1,2.22-1.17c2.93-1.36,6.24-2.89,4.54-7.26a6.69,6.69,0,0,0-5.49-4.46c-3.15-.38-6.42,1.38-8.75,4.7-4.73,6.76-9.69,19-9.74,19.17l-.05.12-.1.09c-1.36,1.1-5.93,4.62-7.49,3.45-.61-.46-1-1.59-1.47-3.16-.82-2.59-1.94-6.13-4.68-7.82a5.56,5.56,0,0,0-5.77,0,5.67,5.67,0,0,0-3.1,4.42c0,1.53,1.93,2.41,4.17,3.42,2,.94,4.36,2,5.71,3.85,2.81,3.87,2.84,13,2.84,13.36V186l-.07.12c-.05.08-5.1,8.18-13.59,6.41-7.51-1.56-28.81-14.87-33.37-17.76Z" style="fill: rgb(38, 50, 56); transform-origin: 310.279px 172.801px;" id="el6wapndb701" class="animable"></path><path d="M342.6,192.3s-5.55-.26-5.55-5.41.1-10.29-3.34-10.29" style="fill: rgb(0, 255, 136); transform-origin: 338.155px 184.45px;" id="elr8qhev0sax" class="animable"></path><path d="M342.58,192.8c-.06,0-6-.34-6-5.91v-.41a33.84,33.84,0,0,0-.4-6.71c-.54-2.36-1.59-2.67-2.44-2.67v-1c1.75,0,2.89,1.16,3.41,3.45a33.92,33.92,0,0,1,.43,6.93v.41c0,4.61,4.87,4.9,5.07,4.91Z" style="fill: rgb(38, 50, 56); transform-origin: 338.195px 184.45px;" id="elftmixrzl5v" class="animable"></path><path d="M269.35,229.34H250.29c-9.34,0-16.26-9.62-14.15-19.69l13-49.38H270l13.51,49.19C285.7,219.58,278.77,229.34,269.35,229.34Z" style="fill: rgb(0, 255, 136); transform-origin: 259.838px 194.805px;" id="elpu7zqj6lw0r" class="animable"></path><path d="M269.35,229.84H250.29a14.47,14.47,0,0,1-11.19-5.51,17.81,17.81,0,0,1-3.45-14.78l13.06-49.78h21.62l.1.37,13.51,49.18a17.87,17.87,0,0,1-3.34,14.94A14.46,14.46,0,0,1,269.35,229.84Zm-19.86-69.07-12.86,49a16.77,16.77,0,0,0,3.25,13.92,13.27,13.27,0,0,0,10.41,5.14h19.06a13.31,13.31,0,0,0,10.47-5.2A16.86,16.86,0,0,0,283,209.57l-13.4-48.8Z" style="fill: rgb(38, 50, 56); transform-origin: 259.818px 194.805px;" id="elr8tywyvu61" class="animable"></path><polygon points="275 178.65 269.95 160.27 249.1 160.27 244.28 178.65 275 178.65" style="fill: rgb(38, 50, 56); transform-origin: 259.64px 169.46px;" id="el30itpihze54" class="animable"></polygon><path d="M275.65,179.15h-32l5.08-19.38h21.62Zm-30.72-1h29.41l-4.77-17.38H249.49Z" style="fill: rgb(38, 50, 56); transform-origin: 259.65px 169.46px;" id="eljcc3iz5jbr" class="animable"></path><path d="M319.94,89.33c0,35-37.15,82.56-59.17,82.56-20.64,0-59.17-47.61-59.17-82.56S228.09,26,260.77,26,319.94,54.37,319.94,89.33Z" style="fill: rgb(0, 255, 136); transform-origin: 260.77px 98.945px;" id="eljekcj1qsvf" class="animable"></path><path d="M260.77,172.39c-10,0-24.79-11.14-37.72-28.37-13.75-18.31-22-38.76-22-54.69,0-35.18,26.77-63.8,59.67-63.8s59.67,28.62,59.67,63.8C320.44,125.18,282.91,172.39,260.77,172.39Zm0-145.86c-32.35,0-58.67,28.17-58.67,62.8,0,33.81,38,82.06,58.67,82.06,10.17,0,24.87-11,37.44-28,13.3-18,21.23-38.19,21.23-54.09C319.44,54.7,293.12,26.53,260.77,26.53Z" style="fill: rgb(38, 50, 56); transform-origin: 260.72px 98.96px;" id="elqziwnlpwhqg" class="animable"></path><path d="M260.08,134.33a18.53,18.53,0,0,1-11.54-4,1.5,1.5,0,0,1,1.88-2.34A15.47,15.47,0,0,0,271,126.81a1.5,1.5,0,0,1,2.12,2.12A18.34,18.34,0,0,1,260.08,134.33Z" style="fill: rgb(38, 50, 56); transform-origin: 260.751px 130.369px;" id="elt1t2oifhetq" class="animable"></path><path d="M254.81,114.48c-6.37,9.15-25.56,6.78-34.71.41s-17.54-23.23-11.17-32.37,25.1-7.11,34.24-.74S261.18,105.34,254.81,114.48Z" style="fill: rgb(38, 50, 56); transform-origin: 231.835px 98.4259px;" id="elhzsl3yzgqqg" class="animable"></path><path d="M239.73,121c-7.21,0-15-2.27-19.91-5.7-4.67-3.25-9.11-9.14-11.58-15.37-2.82-7.1-2.72-13.39.28-17.7,6.75-9.68,25.85-7.19,34.94-.86,9.31,6.49,18.29,24,11.76,33.4C252.14,119.19,246.16,121,239.73,121ZM224.15,76.84c-6.14,0-11.86,1.73-14.81,6-3.78,5.44-1.73,12.83-.17,16.76,2.4,6.06,6.7,11.77,11.22,14.92,9,6.26,27.8,8.63,34-.28l.41.28-.41-.28c6.21-8.91-2.52-25.74-11.51-32C238.26,79,231,76.84,224.15,76.84Z" style="fill: rgb(38, 50, 56); transform-origin: 231.823px 98.3904px;" id="elutb3zoi704" class="animable"></path><path d="M223.44,90.66a5.83,5.83,0,1,1-5.83-5.83A5.83,5.83,0,0,1,223.44,90.66Z" style="fill: rgb(255, 255, 255); transform-origin: 217.61px 90.66px;" id="elwlssfftv0xg" class="animable"></path><circle cx="225.31" cy="107.21" r="1.86" style="fill: rgb(255, 255, 255); transform-origin: 225.31px 107.21px;" id="elt30xnn3cw1" class="animable"></circle><path d="M266.7,114.48c6.37,9.15,25.57,6.78,34.71.41S319,91.66,312.58,82.52s-25.09-7.11-34.24-.74S260.33,105.34,266.7,114.48Z" style="fill: rgb(38, 50, 56); transform-origin: 289.684px 98.4259px;" id="eln4cidjwe2jh" class="animable"></path><path d="M281.72,121c-7.15,0-12.6-2.2-15.43-6.26-6.52-9.37,2.45-26.91,11.77-33.4,9.09-6.33,28.18-8.82,34.93.86S310.79,109,301.7,115.3c-4.7,3.27-11.85,5.45-18.66,5.7Zm15.65-44.19c-6.8,0-14.12,2.13-18.74,5.35-9,6.27-17.73,23.1-11.52,32h0c3.78,5.41,11.57,6,15.89,5.8,6.64-.24,13.58-2.35,18.13-5.52,8.8-6.14,17.25-22.77,11-31.68C309.22,78.57,303.5,76.84,297.37,76.84Z" style="fill: rgb(38, 50, 56); transform-origin: 289.708px 98.3754px;" id="elffc6yjyr83l" class="animable"></path><path d="M287.54,90.66a5.83,5.83,0,1,1-5.82-5.83A5.83,5.83,0,0,1,287.54,90.66Z" style="fill: rgb(255, 255, 255); transform-origin: 281.71px 90.66px;" id="elwoc5wuui2y" class="animable"></path><path d="M272.39,107.21a1.87,1.87,0,1,1-1.86-1.86A1.87,1.87,0,0,1,272.39,107.21Z" style="fill: rgb(255, 255, 255); transform-origin: 270.52px 107.22px;" id="eluyl5hsse" class="animable"></path><path d="M188.77,165.14l-5.67-4.94.33-.38a19.11,19.11,0,0,0,3.22-19.74l-.19-.46,6.94-2.89.19.47a26.67,26.67,0,0,1-4.49,27.56Zm-4.26-5,4.16,3.63A25.67,25.67,0,0,0,192.85,138l-5.09,2.12A20.15,20.15,0,0,1,184.51,160.1Z" style="fill: rgb(38, 50, 56); transform-origin: 189.344px 150.935px;" id="elp57mh8teq8q" class="animable"></path><path d="M182.5,133.86l-.37-.34a18.89,18.89,0,0,0-22.44-2.66h0l-.38.21-.3-.39-3.48-6.08.43-.24a26.35,26.35,0,0,1,31.33,3.69l.36.34Zm-13.35-6.53a19.89,19.89,0,0,1,13.3,5.12l3.77-4A25.34,25.34,0,0,0,156.88,125l2.74,4.78A20,20,0,0,1,169.15,127.33Z" style="fill: rgb(38, 50, 56); transform-origin: 171.59px 127.339px;" id="elex8rphq2utm" class="animable"></path><path d="M169.12,173.85a26.5,26.5,0,0,1-26.5-26.26v-.5l7.51-.07v.5a19,19,0,0,0,19.65,18.81l.5,0,.26,7.51-.5,0Zm-25.49-25.77a25.51,25.51,0,0,0,25.88,24.77l-.2-5.51a19.88,19.88,0,0,1-17.55-10.07h0a20,20,0,0,1-2.62-9.24Z" style="fill: rgb(38, 50, 56); transform-origin: 156.58px 160.435px;" id="elpurymnukxci" class="animable"></path><path d="M151.48,140.34l-6.92-3,.2-.46a26.42,26.42,0,0,1,7.75-10.21l.39-.31,4.72,5.86-.39.32a18.76,18.76,0,0,0-5.55,7.31Zm-5.6-3.49L151,139a20,20,0,0,1,5.25-6.92l-3.46-4.31A25.57,25.57,0,0,0,145.88,136.85Z" style="fill: rgb(38, 50, 56); transform-origin: 151.09px 133.35px;" id="elq8o64tcy1nd" class="animable"></path><path d="M169.17,178.5a31.18,31.18,0,1,1,15.39-4.11A31.1,31.1,0,0,1,169.17,178.5Zm-.1-61.28a30.14,30.14,0,1,0,15,56.3h0a30.14,30.14,0,0,0-15-56.3Z" style="fill: rgb(38, 50, 56); transform-origin: 169.087px 147.32px;" id="elwdvcyxttj4d" class="animable"></path><path d="M169.15,167.35a20,20,0,1,1,9.89-2.63h0A19.92,19.92,0,0,1,169.15,167.35Zm-.06-39a19,19,0,1,0,9.45,35.49h0a19,19,0,0,0-9.45-35.49Z" style="fill: rgb(38, 50, 56); transform-origin: 169.126px 147.35px;" id="elginj968dtn" class="animable"></path><path d="M377,135.56H345a3.6,3.6,0,0,1-3.6-3.6v-.23a3.6,3.6,0,0,1,3.6-3.6h32a3.6,3.6,0,0,1,3.6,3.6V132A3.6,3.6,0,0,1,377,135.56Zm-32-6.43a2.61,2.61,0,0,0-2.6,2.6V132a2.61,2.61,0,0,0,2.6,2.6h32a2.61,2.61,0,0,0,2.6-2.6v-.23a2.61,2.61,0,0,0-2.6-2.6Z" style="fill: rgb(38, 50, 56); transform-origin: 361px 131.845px;" id="el53g6hv55xp2" class="animable"></path><path d="M371.16,135.2a3.36,3.36,0,1,1,3.35-3.36A3.35,3.35,0,0,1,371.16,135.2Zm0-5.71a2.36,2.36,0,1,0,2.35,2.35A2.36,2.36,0,0,0,371.16,129.49Z" style="fill: rgb(38, 50, 56); transform-origin: 371.15px 131.84px;" id="elxvj9r7e1e7" class="animable"></path><path d="M377,150.56H345a3.6,3.6,0,0,1-3.6-3.59v-.24a3.61,3.61,0,0,1,3.6-3.6h32a3.61,3.61,0,0,1,3.6,3.6V147A3.6,3.6,0,0,1,377,150.56Zm-32-6.43a2.61,2.61,0,0,0-2.6,2.6V147a2.6,2.6,0,0,0,2.6,2.59h32a2.6,2.6,0,0,0,2.6-2.59v-.24a2.61,2.61,0,0,0-2.6-2.6Z" style="fill: rgb(38, 50, 56); transform-origin: 361px 146.845px;" id="elymr5fy75o4" class="animable"></path><path d="M355.79,150.21a3.36,3.36,0,1,1,3.36-3.36A3.36,3.36,0,0,1,355.79,150.21Zm0-5.72a2.36,2.36,0,1,0,2.36,2.36A2.36,2.36,0,0,0,355.79,144.49Z" style="fill: rgb(38, 50, 56); transform-origin: 355.79px 146.85px;" id="eltjti6izqak" class="animable"></path><path d="M365.94,195.57H355.29V191h10.65Zm-9.65-1h8.65V192h-8.65Z" style="fill: rgb(38, 50, 56); transform-origin: 360.615px 193.285px;" id="elo5zksrbqm2p" class="animable"></path><path d="M365.94,190.22H355.29v-4.58h10.65Zm-9.65-1h8.65v-2.58h-8.65Z" style="fill: rgb(38, 50, 56); transform-origin: 360.615px 187.93px;" id="elcbdp4z1nx5" class="animable"></path><path d="M365.94,184.86H355.29v-4.57h10.65Zm-9.65-1h8.65v-2.57h-8.65Z" style="fill: rgb(38, 50, 56); transform-origin: 360.615px 182.575px;" id="el2c5ym1lfkgv" class="animable"></path><path d="M365.94,179.5H355.29v-4.57h10.65Zm-9.65-1h8.65v-2.57h-8.65Z" style="fill: rgb(38, 50, 56); transform-origin: 360.615px 177.215px;" id="elc84nd2mnjwj" class="animable"></path><path d="M365.94,174.14H355.29v-4.57h10.65Zm-9.65-1h8.65v-2.57h-8.65Z" style="fill: rgb(38, 50, 56); transform-origin: 360.615px 171.855px;" id="el38js86mvf5y" class="animable"></path><path d="M378.62,195.57H368V191h10.64Zm-9.64-1h8.64V192H369Z" style="fill: rgb(38, 50, 56); transform-origin: 373.32px 193.285px;" id="el7xcisnpxykv" class="animable"></path><path d="M378.62,190.22H368v-4.58h10.64Zm-9.64-1h8.64v-2.58H369Z" style="fill: rgb(38, 50, 56); transform-origin: 373.32px 187.93px;" id="elv1wbniq576k" class="animable"></path><path d="M378.62,184.86H368v-4.57h10.64Zm-9.64-1h8.64v-2.57H369Z" style="fill: rgb(38, 50, 56); transform-origin: 373.32px 182.575px;" id="el98dmz5pgm1f" class="animable"></path><path d="M205.6,214.76c12.29,24.72,32.57,40.88,55.53,40.88s43.23-16.16,55.52-40.88Z" style="fill: rgb(38, 50, 56); transform-origin: 261.125px 235.2px;" id="elgommxusjfso" class="animable"></path><path d="M261.12,256.14c-22.23,0-43.15-15.39-56-41.16l-.36-.72H317.45l-.36.72C304.28,240.75,283.36,256.14,261.12,256.14Zm-54.71-40.88c12.67,25,33.08,39.88,54.71,39.88s42.05-14.89,54.72-39.88Z" style="fill: rgb(38, 50, 56); transform-origin: 261.105px 235.2px;" id="elxa9vbmmg6wd" class="animable"></path><rect x="203.18" y="210" width="116.41" height="9.94" rx="4.79" style="fill: rgb(156, 156, 156); transform-origin: 261.385px 214.97px;" id="els8tpzjv418" class="animable"></rect><path d="M314.8,220.45H208a5.3,5.3,0,0,1-5.29-5.29v-.37A5.3,5.3,0,0,1,208,209.5H314.8a5.3,5.3,0,0,1,5.29,5.29v.37A5.3,5.3,0,0,1,314.8,220.45ZM208,210.5a4.3,4.3,0,0,0-4.29,4.29v.37a4.3,4.3,0,0,0,4.29,4.29H314.8a4.3,4.3,0,0,0,4.29-4.29v-.37a4.3,4.3,0,0,0-4.29-4.29Z" style="fill: rgb(38, 50, 56); transform-origin: 261.4px 214.975px;" id="elc17lbq4nq0v" class="animable"></path><g id="el23wpo8lkvkq"><ellipse cx="230.04" cy="231.84" rx="6.5" ry="9.75" style="fill: rgb(255, 255, 255); transform-origin: 230.04px 231.84px; transform: rotate(-66.32deg);" class="animable"></ellipse></g><path d="M232.73,239.46a13.76,13.76,0,0,1-5.5-1.21c-5.18-2.27-8.13-7-6.58-10.53a6.14,6.14,0,0,1,4.83-3.36,13.1,13.1,0,0,1,7.37,1.06c5.18,2.28,8.13,7,6.58,10.54C238.44,238.22,235.83,239.46,232.73,239.46Zm-5.4-14.25a9.18,9.18,0,0,0-1.67.14,5.18,5.18,0,0,0-4.1,2.77c-1.32,3,1.4,7.16,6.07,9.21s9.55,1.25,10.88-1.78-1.39-7.16-6.06-9.21A12.82,12.82,0,0,0,227.33,225.21Z" style="fill: rgb(38, 50, 56); transform-origin: 230.04px 231.841px;" id="elwb3ao8a0bc9" class="animable"></path><path d="M239,235.75c.8-1.81.29-4-1.15-5.89-4.41-1.36-8.68-.33-10,2.61-.8,1.81-.29,4,1.15,5.9C233.41,239.73,237.68,238.69,239,235.75Z" style="fill: rgb(255, 255, 255); transform-origin: 233.425px 234.114px;" id="ellls9776yg1b" class="animable"></path><path d="M232.77,239.46a13.57,13.57,0,0,1-3.92-.61l-.16,0-.09-.13c-1.61-2.16-2-4.49-1.21-6.4,1.38-3.14,5.82-4.35,10.58-2.89l.16.05.09.13c1.61,2.16,2.05,4.49,1.21,6.4h0C238.44,238.2,235.89,239.46,232.77,239.46Zm-3.47-1.52c4.2,1.24,8.06.25,9.21-2.39h0c.68-1.53.31-3.44-1-5.26-4.2-1.24-8.06-.25-9.21,2.38C227.63,234.21,228,236.12,229.3,237.94Z" style="fill: rgb(38, 50, 56); transform-origin: 233.421px 234.138px;" id="elihk32bj3sq" class="animable"></path><g id="elg1lt6nfth16"><ellipse cx="293.19" cy="231.84" rx="9.75" ry="6.5" style="fill: rgb(255, 255, 255); transform-origin: 293.19px 231.84px; transform: rotate(-23.68deg);" class="animable"></ellipse></g><path d="M290.48,239.47a11,11,0,0,1-1.84-.16A6.14,6.14,0,0,1,283.8,236c-1.55-3.54,1.4-8.26,6.58-10.54a13.11,13.11,0,0,1,7.37-1.06,6.12,6.12,0,0,1,4.83,3.36c1.55,3.53-1.4,8.26-6.57,10.53A14,14,0,0,1,290.48,239.47Zm5.42-14.26a12.86,12.86,0,0,0-5.12,1.13c-4.67,2-7.39,6.18-6.06,9.21a5.17,5.17,0,0,0,4.09,2.78,12.08,12.08,0,0,0,6.79-1c4.68-2.05,7.4-6.18,6.07-9.21a5.16,5.16,0,0,0-4.09-2.77A9.22,9.22,0,0,0,295.9,225.21Z" style="fill: rgb(38, 50, 56); transform-origin: 293.19px 231.866px;" id="elvek87kv5q9m" class="animable"></path><path d="M284.26,235.75c-.79-1.81-.29-4,1.15-5.89,4.42-1.36,8.68-.33,10,2.61.8,1.81.29,4-1.15,5.9C289.82,239.73,285.55,238.69,284.26,235.75Z" style="fill: rgb(255, 255, 255); transform-origin: 289.837px 234.114px;" id="elopr5kx4ssw8" class="animable"></path><path d="M290.46,239.46c-3.11,0-5.67-1.26-6.66-3.5-.83-1.91-.39-4.24,1.21-6.4l.1-.13.15-.05c4.76-1.46,9.2-.25,10.58,2.89.84,1.91.4,4.24-1.2,6.4l-.1.13-.16,0A13.57,13.57,0,0,1,290.46,239.46Zm-4.74-9.17c-1.31,1.82-1.67,3.73-1,5.26h0c1.15,2.64,5,3.63,9.21,2.39,1.3-1.82,1.67-3.73,1-5.27C293.77,230,289.91,229.05,285.72,230.29Z" style="fill: rgb(38, 50, 56); transform-origin: 289.824px 234.113px;" id="elszj6b64k3gk" class="animable"></path><rect x="231.99" y="160.48" width="55.45" height="15.8" rx="4.52" style="fill: rgb(255, 255, 255); transform-origin: 259.715px 168.38px;" id="elrnigg89uiy" class="animable"></rect><path d="M282.92,176.78H236.5a5,5,0,0,1-5-5V165a5,5,0,0,1,5-5h46.42a5,5,0,0,1,5,5v6.77A5,5,0,0,1,282.92,176.78ZM236.5,161a4,4,0,0,0-4,4v6.77a4,4,0,0,0,4,4h46.42a4,4,0,0,0,4-4V165a4,4,0,0,0-4-4Z" style="fill: rgb(38, 50, 56); transform-origin: 259.71px 168.39px;" id="eltn07t5fl7nn" class="animable"></path><path d="M269.91,176.15a3.13,3.13,0,0,0-3.13-3.13H252a3.13,3.13,0,0,0-3.13,3.13s0,.09,0,.13h21S269.91,176.2,269.91,176.15Z" style="fill: rgb(255, 255, 255); transform-origin: 259.39px 174.65px;" id="el0k5dvbnpbchq" class="animable"></path><path d="M269.9,176.78H248.37l0-.48c0-.05,0-.1,0-.15a3.64,3.64,0,0,1,3.63-3.63h14.81a3.64,3.64,0,0,1,3.63,3.63v.14l-.07.43Zm-20.53-1h20a2.63,2.63,0,0,0-2.6-2.26H252A2.63,2.63,0,0,0,249.37,175.78Z" style="fill: rgb(38, 50, 56); transform-origin: 259.405px 174.65px;" id="elgv42rjfsuf8" class="animable"></path><rect x="232.06" y="167.88" width="54.85" height="1" style="fill: rgb(38, 50, 56); transform-origin: 259.485px 168.38px;" id="eluy54wl7b0no" class="animable"></rect><path d="M269.91,160.89c0,5.7-1.4,10.32-3.13,10.32H252c-1.73,0-3.13-4.62-3.13-10.32,0-.14,0-.27,0-.41h21C269.9,160.62,269.91,160.75,269.91,160.89Z" style="fill: rgb(255, 255, 255); transform-origin: 259.39px 165.845px;" id="el44mwlwocpmr" class="animable"></path><path d="M266.78,171.71H252c-2.36,0-3.63-5.58-3.63-10.82,0-.08,0-.16,0-.24V160h22v.66a2.09,2.09,0,0,1,0,.25C270.41,166.13,269.14,171.71,266.78,171.71ZM249.34,161c0,6,1.54,9.73,2.63,9.73h14.81c1.09,0,2.61-3.7,2.63-9.73Z" style="fill: rgb(38, 50, 56); transform-origin: 259.372px 165.855px;" id="elxgvx95ebk9" class="animable"></path></g><defs>     <filter id="active" height="200%">         <feMorphology in="SourceAlpha" result="DILATED" operator="dilate" radius="2"></feMorphology>                <feFlood flood-color="#32DFEC" flood-opacity="1" result="PINK"></feFlood>        <feComposite in="PINK" in2="DILATED" operator="in" result="OUTLINE"></feComposite>        <feMerge>            <feMergeNode in="OUTLINE"></feMergeNode>            <feMergeNode in="SourceGraphic"></feMergeNode>        </feMerge>    </filter>    <filter id="hover" height="200%">        <feMorphology in="SourceAlpha" result="DILATED" operator="dilate" radius="2"></feMorphology>                <feFlood flood-color="#ff0000" flood-opacity="0.5" result="PINK"></feFlood>        <feComposite in="PINK" in2="DILATED" operator="in" result="OUTLINE"></feComposite>        <feMerge>            <feMergeNode in="OUTLINE"></feMergeNode>            <feMergeNode in="SourceGraphic"></feMergeNode>        </feMerge>            <feColorMatrix type="matrix" values="0   0   0   0   0                0   1   0   0   0                0   0   0   0   0                0   0   0   1   0 "></feColorMatrix>    </filter></defs></svg>